<?xml version="1.0" standalone="no"?>
<!DOCTYPE svg PUBLIC "-//W3C//DTD SVG 20010904//EN"
 "http://www.w3.org/TR/2001/REC-SVG-20010904/DTD/svg10.dtd">
<svg version="1.0" xmlns="http://www.w3.org/2000/svg"
 width="300.000000pt" height="395.000000pt" viewBox="0 0 300.000000 395.000000"
 preserveAspectRatio="xMidYMid meet">
<metadata>
Created by potrace 1.10, written by Peter Selinger 2001-2011
</metadata>
<g transform="translate(0.000000,395.000000) scale(0.050000,-0.050000)"
fill="#191970" stroke="none">
<path d="M3545 7866 c-42 -6 -65 -20 -65 -39 0 -22 11 -27 35 -17 19 8 51 19
70 25 19 5 35 18 35 27 0 10 -2 17 -5 15 -3 -2 -34 -7 -70 -11z"/>
<path d="M227 7795 c0 -41 8 -75 16 -75 30 0 33 31 8 90 l-26 60 2 -75z"/>
<path d="M3730 7819 c9 -13 -5 -16 -41 -7 -41 10 -52 7 -44 -14 12 -35 88 -28
128 12 27 27 25 30 -13 30 -24 0 -37 -9 -30 -21z"/>
<path d="M3093 7715 c-28 -21 -31 -36 -15 -75 l19 -50 2 54 c1 56 41 102 41
47 0 -20 18 -31 50 -31 28 0 68 -18 90 -40 30 -30 40 -32 40 -11 0 17 25 31
65 36 l65 7 -97 44 c-108 49 -208 57 -260 19z"/>
<path d="M43 7662 c-23 -14 -23 -25 -1 -64 15 -27 25 -55 22 -63 -2 -8 3 -15
12 -15 9 0 38 -47 63 -105 26 -58 58 -118 72 -135 14 -16 34 -61 45 -100 15
-56 22 -63 34 -35 13 32 -36 172 -91 255 -10 17 -28 49 -38 73 -10 24 -28 49
-40 56 -11 7 -21 31 -21 52 0 22 -10 39 -22 39 -12 0 -17 14 -11 30 14 35 12
35 -24 12z"/>
<path d="M353 7547 c-20 -21 -15 -87 7 -87 11 0 20 -17 20 -38 0 -21 14 -43
30 -49 17 -7 29 -19 27 -27 -2 -9 8 -43 21 -76 14 -33 26 -85 26 -115 1 -30
13 -55 27 -55 32 0 77 -111 58 -142 -10 -15 -7 -19 8 -10 14 9 23 1 23 -18 0
-18 9 -27 20 -20 11 7 20 -9 20 -35 0 -27 7 -55 15 -63 8 -9 15 -26 15 -39 1
-13 16 -22 35 -20 19 1 35 -5 35 -15 0 -10 -11 -18 -24 -18 -18 0 -18 -6 -2
-22 12 -12 31 -17 42 -11 26 17 12 116 -20 135 -14 9 -26 26 -26 38 0 12 -9
28 -20 36 -28 20 -70 98 -70 131 0 16 -14 40 -31 54 -17 14 -28 40 -24 57 3
18 -7 42 -22 54 -16 12 -31 40 -32 61 -2 21 -18 61 -37 87 -19 27 -34 60 -34
74 0 38 -72 148 -87 133z"/>
<path d="M5889 7518 c-6 -10 -19 -14 -28 -8 -17 10 -50 -47 -44 -76 2 -10 -5
-11 -16 -4 -12 7 -37 3 -56 -8 -33 -18 -33 -20 0 -33 19 -7 30 -21 24 -30 -6
-10 -23 -12 -40 -6 -16 6 -29 2 -29 -9 0 -10 -18 -24 -40 -30 -23 -6 -40 -27
-40 -50 0 -26 -18 -44 -50 -52 -27 -7 -50 -21 -50 -31 0 -29 -92 -122 -107
-107 -7 7 -13 -3 -13 -22 0 -19 -9 -29 -22 -21 -11 7 -35 -6 -51 -29 -16 -24
-37 -38 -45 -33 -9 5 -25 -22 -37 -60 -13 -43 -14 -73 -2 -81 10 -6 13 -30 6
-53 -12 -36 -10 -37 17 -13 16 15 28 30 25 33 -3 3 84 93 193 200 115 113 193
205 187 220 -6 15 -2 22 8 16 22 -14 121 88 121 124 0 14 13 25 28 25 22 0
152 125 152 146 0 16 -81 8 -91 -8z"/>
<path d="M2970 7493 c-178 -46 -308 -131 -358 -233 -37 -75 -13 -850 24 -785
14 25 35 45 47 45 12 0 -7 -32 -41 -71 -276 -314 721 -490 1079 -191 l68 57
-6 292 c-4 161 -9 308 -13 328 -4 19 -8 104 -8 189 -3 303 -376 477 -792 369z
m104 -81 c-2 -12 7 -20 21 -17 14 3 23 -5 20 -17 -3 -13 8 -28 23 -33 16 -6
22 -1 15 11 -15 23 23 21 62 -3 17 -10 25 -3 25 21 1 30 4 31 20 6 11 -16 20
-21 20 -10 0 11 18 32 40 45 22 14 38 17 35 7 -3 -10 4 -18 15 -18 11 0 18 7
16 15 -2 8 9 14 25 14 16 0 27 -11 24 -25 -3 -14 4 -25 15 -25 11 1 18 9 15
18 -2 10 9 13 25 6 16 -6 27 -21 24 -34 -4 -21 16 -23 61 -8 8 3 17 -4 20 -15
3 -11 -6 -20 -20 -20 -14 0 -24 -19 -23 -42 2 -33 -7 -41 -40 -34 -35 8 -37 6
-12 -14 25 -20 22 -22 -15 -14 -25 6 -51 1 -58 -11 -7 -12 -4 -15 9 -8 11 8
27 5 33 -6 7 -10 -6 -15 -28 -11 -28 5 -41 -3 -41 -26 -1 -29 -3 -30 -20 -4
-22 34 -22 34 -27 -55 -2 -42 6 -65 23 -65 15 0 21 9 14 20 -7 11 4 20 24 20
30 1 31 4 6 20 -23 15 -18 19 24 20 29 0 59 9 66 20 7 12 -2 14 -24 7 -20 -8
-30 -7 -23 1 7 8 30 18 50 21 20 4 35 16 32 28 -2 12 10 16 29 9 24 -10 28 -6
16 16 -9 15 -9 21 0 13 9 -8 28 -5 43 8 15 12 27 15 27 7 0 -8 16 -3 35 12 29
23 29 20 -3 -17 -20 -24 -45 -40 -53 -34 -9 5 -22 1 -29 -11 -12 -19 17 -29
58 -21 10 2 7 -11 -7 -28 -24 -29 -15 -40 27 -32 10 2 7 -11 -7 -28 -14 -17
-19 -31 -11 -31 8 0 4 -13 -10 -30 -13 -16 -31 -25 -39 -20 -9 5 -35 -13 -60
-39 -24 -26 -35 -52 -25 -59 11 -6 31 2 45 19 14 17 44 41 67 53 41 21 41 20
7 -18 -38 -42 -25 -79 16 -45 18 15 30 14 40 -3 9 -14 7 -19 -6 -11 -11 7 -32
-1 -45 -17 -23 -28 -14 -39 27 -32 9 2 -2 -23 -26 -56 -27 -38 -34 -64 -20
-72 14 -10 15 -21 0 -39 -11 -13 -16 -31 -11 -38 6 -7 4 -9 -3 -3 -7 5 -24 1
-37 -10 -16 -13 -23 -10 -23 9 0 16 8 27 19 25 10 -2 21 11 24 30 6 32 3 32
-42 3 -26 -17 -44 -38 -39 -46 5 -8 -3 -14 -19 -14 -16 0 -24 7 -19 15 6 9 -5
24 -22 34 -18 9 -32 24 -31 31 1 7 -5 11 -13 8 -8 -3 -13 -12 -10 -20 3 -8 -2
-14 -10 -13 -51 8 -75 -3 -45 -21 24 -16 21 -19 -12 -16 -51 4 -55 55 -5 55
21 0 37 8 37 17 0 22 -65 22 -94 -1 -13 -10 -19 -30 -14 -44 5 -14 -2 -25 -17
-25 -14 0 -26 16 -26 35 0 19 6 31 14 26 8 -5 20 0 26 10 6 11 4 24 -5 30 -26
16 -108 -49 -97 -77 5 -13 -3 -24 -18 -24 -15 0 -25 5 -23 11 5 14 -15 22 -51
22 -17 -1 -15 -7 5 -19 23 -15 20 -19 -14 -16 -24 2 -39 10 -34 18 5 8 0 20
-12 27 -11 7 -20 -5 -20 -25 0 -21 -13 -38 -30 -38 -16 0 -26 4 -20 9 12 13
-29 64 -51 64 -9 0 -13 -18 -9 -40 12 -60 -56 -89 -99 -41 -22 25 -26 41 -12
50 12 8 17 22 11 32 -17 27 -100 -66 -97 -108 1 -26 -4 -30 -20 -14 -37 37
-33 126 4 96 25 -21 28 -19 18 8 -12 31 31 68 70 60 8 -2 15 11 15 27 0 36
-41 31 -72 -9 -19 -24 -26 -22 -45 14 -19 35 -17 41 12 36 52 -8 70 9 44 41
-13 15 -33 22 -44 15 -13 -8 -15 -3 -6 11 10 17 22 18 40 3 13 -11 32 -14 41
-6 9 8 9 3 0 -13 -11 -18 -7 -24 12 -18 44 15 36 121 -10 128 -21 3 -57 26
-80 51 -26 27 -29 35 -7 18 40 -30 42 -23 16 47 -13 33 -13 55 1 63 13 8 11
24 -6 46 -22 28 -22 30 4 13 17 -11 44 -20 60 -20 35 1 51 40 17 40 -29 0 -40
66 -15 81 11 7 17 1 13 -12 -3 -13 6 -28 19 -33 15 -5 21 6 16 32 -4 23 2 47
14 55 13 7 17 4 9 -8 -16 -26 39 -73 66 -55 12 7 16 21 10 32 -6 10 -22 13
-33 5 -13 -8 -16 -4 -8 10 10 16 36 8 86 -26 40 -27 82 -44 92 -37 11 7 14 2
7 -10 -8 -11 -4 -27 8 -35 15 -9 20 3 16 34 -5 33 -18 45 -44 41 -23 -4 -32 2
-23 15 7 12 24 20 37 17 12 -3 24 3 26 14 2 11 -7 17 -20 12 -61 -20 -106 -16
-106 10 0 21 6 22 26 5 19 -16 27 -16 27 0 0 12 15 16 33 9 20 -8 29 -5 21 7
-7 11 0 20 16 20 15 0 26 -9 24 -21z m447 -843 c16 -10 47 -21 68 -24 66 -10
131 -63 131 -107 0 -22 -8 -35 -18 -29 -10 6 -14 -9 -9 -34 9 -42 8 -43 -19
-9 -31 37 -70 -5 -44 -46 6 -10 0 -24 -13 -32 -14 -9 -18 -6 -9 9 27 43 -25
23 -57 -21 -17 -25 -31 -37 -31 -27 0 10 -14 1 -31 -20 -18 -22 -26 -27 -18
-13 11 22 6 22 -28 1 -22 -14 -35 -34 -29 -44 7 -11 2 -13 -12 -4 -14 9 -17
24 -7 38 16 21 18 57 5 83 -3 6 -6 18 -7 28 -2 10 -11 26 -21 35 -11 10 -13 7
-5 -6 7 -13 2 -28 -12 -32 -18 -7 -14 -21 13 -52 34 -38 35 -43 5 -45 -63 -5
-71 -8 -97 -36 -14 -15 -17 -23 -5 -16 11 6 34 3 50 -7 21 -14 11 -18 -36 -15
-41 3 -63 13 -57 28 6 14 -10 23 -39 21 -27 -2 -49 -14 -49 -28 0 -14 -12 -25
-27 -25 -34 0 -47 76 -52 298 l-3 167 217 -9 c119 -5 230 -17 246 -27z m-481
-209 c0 -207 -2 -220 -40 -220 -24 0 -41 14 -42 35 -1 21 -5 25 -11 10 -6 -14
-19 -25 -30 -25 -11 0 -14 9 -7 20 7 11 0 20 -16 20 -15 0 -44 18 -64 40 -20
22 -29 40 -21 40 9 0 5 14 -9 31 -23 27 -29 27 -61 -2 -40 -36 -66 -12 -70 66
-2 35 3 40 24 22 15 -12 27 -36 27 -53 0 -24 6 -26 23 -9 18 18 18 30 0 51
-12 15 -16 35 -8 44 8 9 4 10 -10 2 -16 -9 -25 -2 -25 17 0 18 25 42 55 54 30
12 73 29 95 38 187 75 190 72 190 -181z"/>
<path d="M3318 7386 c-2 -9 -2 -23 0 -31 1 -8 -15 -15 -36 -15 -47 0 -93 -51
-63 -69 20 -13 29 0 23 34 -1 8 18 15 43 14 l45 0 -47 -40 c-26 -21 -37 -39
-24 -39 13 0 17 -11 9 -24 -12 -19 -17 -19 -23 0 -5 13 -17 19 -27 13 -11 -7
-17 -3 -13 8 3 10 -4 18 -15 16 -10 -2 -22 -20 -25 -42 -3 -21 0 -32 8 -25 7
8 25 4 39 -8 31 -26 117 51 96 86 -9 14 -5 17 11 7 16 -10 22 -3 18 22 -3 20
1 48 9 61 8 13 6 29 -6 36 -11 7 -21 5 -22 -4z"/>
<path d="M3363 7354 c-16 -20 -14 -38 9 -71 17 -24 24 -42 14 -39 -24 9 -186
-127 -175 -146 6 -9 24 -11 41 -4 25 9 26 15 5 28 -19 11 -14 15 15 13 23 -2
41 -14 41 -28 0 -14 -5 -23 -11 -21 -7 2 -14 -3 -17 -11 -3 -8 0 -15 5 -15 6
0 19 0 30 0 28 0 25 67 -5 99 -14 15 -15 21 -3 15 12 -7 47 14 79 47 52 54 52
70 0 60 -11 -2 -4 13 15 34 19 21 28 44 21 52 -20 20 -40 16 -64 -13z"/>
<path d="M3071 7342 c-6 -11 -2 -25 9 -32 13 -8 14 -25 0 -50 -16 -30 -11 -45
25 -71 29 -22 33 -30 11 -22 -19 6 -40 3 -46 -7 -13 -21 70 -82 94 -68 29 18
-3 47 -40 35 -28 -9 -29 -7 -5 10 20 14 38 14 54 1 15 -13 28 -13 36 1 8 12 8
22 2 24 -106 23 -165 117 -73 117 47 0 93 51 63 69 -19 12 -28 1 -25 -30 1 -6
-16 -10 -36 -10 -20 0 -33 6 -28 14 5 8 0 20 -10 26 -11 6 -25 3 -31 -7z"/>
<path d="M2898 7306 c-2 -9 -2 -23 0 -31 1 -8 -5 -15 -14 -15 -9 0 -37 -19
-62 -42 -24 -23 -50 -37 -56 -31 -25 26 -82 -27 -72 -67 14 -51 39 -68 58 -37
9 14 6 18 -8 10 -24 -15 -16 63 9 85 7 6 8 -4 1 -23 -11 -29 -4 -34 36 -27 27
5 55 -1 63 -12 7 -13 4 -16 -9 -9 -11 8 -27 5 -34 -7 -14 -22 29 -27 79 -8 29
12 29 15 -2 38 -43 31 -51 84 -16 98 17 6 23 0 16 -19 -6 -16 -2 -29 10 -29
31 0 47 35 23 50 -29 18 -4 50 29 37 16 -5 24 -25 18 -44 -9 -28 -8 -29 11 -3
16 22 21 23 22 4 0 -15 10 -20 23 -12 14 8 18 5 10 -8 -8 -11 -5 -27 5 -33 54
-33 33 33 -23 75 -89 66 -115 79 -117 60z"/>
<path d="M2930 7180 c-12 -19 14 -28 60 -22 11 1 4 -10 -16 -25 -35 -28 -21
-46 41 -54 8 -1 32 -17 53 -35 36 -33 37 -32 10 16 -66 118 -121 163 -148 120z"/>
<path d="M3468 7071 c-100 -86 -119 -111 -104 -139 11 -19 14 -41 7 -48 -7 -7
-18 8 -24 32 -17 65 -38 38 -34 -44 1 -40 -5 -67 -14 -62 -9 6 -22 2 -28 -8
-20 -33 23 -43 49 -12 27 32 70 42 51 11 -19 -29 28 -47 59 -21 29 24 18 88
-12 69 -10 -7 -13 -21 -6 -32 7 -11 -7 -8 -31 7 -38 23 -39 27 -7 33 20 4 48
17 62 29 14 11 25 12 23 2 -8 -40 2 -70 20 -59 11 7 14 28 8 47 -9 28 -7 29
10 5 13 -19 14 -38 2 -52 -10 -13 -12 -29 -4 -38 8 -8 5 -11 -8 -8 -13 4 -24
0 -25 -8 -4 -33 29 -18 50 22 17 34 27 38 50 18 16 -14 25 -23 20 -20 -17 10
-82 -62 -82 -91 0 -23 6 -24 30 -4 17 14 30 38 30 54 0 15 8 24 17 18 10 -6
33 6 52 26 22 26 26 42 12 51 -12 8 -17 22 -11 31 19 30 -19 37 -46 8 -25 -27
-24 -30 14 -35 10 -2 25 -9 33 -17 17 -17 -61 -5 -91 14 -12 7 -16 21 -10 30
6 9 1 23 -10 30 -11 7 -15 34 -8 59 8 33 0 54 -25 70 -31 20 -28 22 23 12 124
-25 140 -23 139 19 0 28 -11 38 -38 33 -33 -5 -35 -2 -14 23 61 74 -18 40
-129 -55z m25 -81 c0 -15 -9 -26 -21 -24 -12 2 -20 -7 -17 -21 3 -14 -13 -25
-35 -25 -22 0 -40 9 -40 20 0 11 9 20 20 20 11 0 19 7 18 15 -5 29 2 37 39 39
20 2 36 -9 36 -24z"/>
<path d="M3170 7081 c-7 -12 -23 -16 -35 -8 -14 9 -17 2 -10 -18 16 -42 -35
-61 -66 -24 -13 16 -32 23 -43 17 -41 -26 46 -86 96 -67 26 10 49 16 50 14 15
-47 12 -77 -7 -58 -27 27 -62 31 -46 5 6 -10 4 -22 -4 -27 -8 -5 -4 -6 9 -3
12 3 34 -7 47 -23 13 -16 31 -24 40 -18 9 5 23 -1 31 -14 9 -15 5 -18 -12 -7
-20 12 -23 7 -14 -16 8 -21 3 -32 -12 -29 -13 3 -22 -6 -19 -20 3 -14 -3 -23
-13 -20 -16 5 -22 -5 -22 -36 0 -6 31 13 69 42 82 62 105 118 68 164 -15 18
-17 27 -5 19 13 -7 38 4 57 24 22 25 26 43 12 51 -21 13 -28 0 -23 -39 2 -11
-13 -2 -32 21 -60 69 -101 93 -116 70z"/>
<path d="M2731 7049 c-38 -28 -24 -39 41 -31 13 1 34 -11 48 -28 14 -16 38
-30 55 -30 24 0 25 6 5 30 -13 16 -35 24 -47 17 -16 -9 -16 -5 1 13 19 20 33
18 71 -13 46 -36 55 -102 10 -74 -12 7 -15 4 -8 -8 7 -12 34 -19 60 -16 27 3
46 -6 46 -21 0 -15 -7 -22 -16 -16 -17 11 -71 25 -157 41 -48 9 -48 8 -12 -21
21 -17 47 -25 58 -18 11 7 14 2 7 -10 -21 -33 25 -51 58 -23 17 14 36 19 43
12 7 -7 22 -4 35 6 14 12 39 4 71 -22 31 -26 37 -37 16 -30 -19 6 -40 2 -47
-8 -7 -11 -23 -18 -36 -15 -12 3 -23 -3 -23 -14 0 -11 7 -18 16 -15 10 4 12
-3 5 -13 -6 -11 -3 -25 9 -32 11 -7 20 6 20 29 0 27 13 41 38 41 95 0 89 84
-8 104 -22 5 -38 20 -35 34 4 14 -2 20 -12 14 -10 -6 -23 7 -29 29 -6 22 -18
39 -27 37 -57 -10 -73 4 -36 32 38 29 38 30 1 17 -26 -9 -34 -6 -25 9 14 22
-47 19 -86 -5 -10 -6 -24 -3 -31 9 -16 27 -32 25 -79 -11z"/>
<path d="M2791 6862 c-6 -10 -2 -25 9 -32 13 -8 13 -25 0 -49 -13 -26 -12 -43
5 -56 55 -42 71 -45 66 -10 -4 19 -17 33 -30 30 -13 -4 -18 3 -11 15 18 29 91
25 85 -5 -3 -14 6 -23 20 -20 14 3 24 -2 23 -10 -7 -39 4 -52 21 -25 13 20 8
41 -15 68 -19 21 -23 33 -10 25 28 -16 55 19 28 36 -11 6 -25 3 -32 -9 -7 -11
-35 -20 -62 -20 -28 0 -45 8 -39 18 6 9 -2 28 -17 41 -18 14 -33 16 -41 3z"/>
<path d="M3134 6513 c-18 -28 -27 -67 -20 -94 9 -34 6 -41 -14 -29 -17 10 -21
8 -13 -6 23 -37 133 -23 133 17 0 20 10 39 23 43 13 5 2 30 -28 62 l-50 55
-31 -48z"/>
<path d="M3469 6502 c-10 -11 -50 -27 -87 -36 -83 -21 -123 -73 -86 -110 27
-27 72 14 52 47 -5 9 13 21 40 28 27 7 65 30 84 51 34 38 32 54 -3 20z"/>
<path d="M3535 6338 c-19 -11 -35 -13 -35 -4 0 9 -9 3 -20 -14 -13 -20 -19
-22 -20 -5 0 14 -11 25 -24 25 -18 0 -19 -5 0 -24 27 -27 108 -38 92 -13 -6
10 3 17 20 17 16 0 35 9 42 20 16 25 -10 25 -55 -2z"/>
<path d="M3892 7494 c-39 -28 -21 -54 55 -81 28 -10 35 -6 26 17 -7 18 0 30
18 30 16 0 29 9 29 19 0 11 -14 14 -32 7 -18 -6 -38 -2 -46 11 -11 17 -24 16
-50 -3z"/>
<path d="M8 7135 c2 -49 107 -243 192 -355 29 -38 129 -194 221 -346 165 -270
452 -694 510 -753 40 -40 41 35 2 89 -15 20 -23 53 -18 73 6 21 -1 37 -15 37
-13 0 -19 13 -13 30 7 17 4 30 -6 30 -10 0 -24 37 -31 83 -9 49 -20 72 -29 58
-11 -17 -19 -14 -26 12 -6 20 -18 54 -26 75 -11 27 -9 34 8 24 12 -8 23 -5 23
7 0 11 -9 21 -20 21 -11 0 -20 17 -20 39 0 21 -18 44 -41 51 -29 10 -37 24
-28 52 12 39 -98 292 -141 323 -33 24 -60 17 -34 -9 13 -13 24 -40 24 -59 0
-19 12 -46 26 -61 70 -72 117 -159 103 -192 -9 -19 -13 -43 -11 -53 3 -11 -14
-3 -37 18 -22 20 -41 58 -41 84 0 28 -12 47 -30 47 -16 0 -30 14 -30 31 0 17
-9 26 -20 19 -11 -7 -20 -3 -20 8 0 11 9 25 20 32 38 23 20 51 -28 42 -37 -7
-45 -1 -38 26 5 22 -10 44 -43 61 -28 15 -51 39 -51 54 0 35 -159 280 -174
267 -6 -5 -19 11 -29 36 -9 26 -26 41 -37 34 -11 -7 -20 0 -20 16 0 15 -17 43
-37 61 -35 32 -37 31 -35 -12z"/>
<path d="M316 7109 c-16 -16 22 -133 52 -159 13 -11 42 -58 65 -104 23 -47 48
-79 55 -71 8 8 8 -2 1 -21 -8 -19 -4 -34 9 -34 12 0 22 28 22 61 0 34 -8 57
-17 51 -9 -6 -38 34 -63 89 -26 54 -52 94 -58 88 -6 -6 -20 17 -32 51 -12 34
-27 57 -34 49z"/>
<path d="M5589 6867 c5 -15 -3 -27 -19 -27 -17 0 -24 -12 -17 -30 7 -19 -1
-30 -21 -30 -18 0 -32 -13 -32 -30 0 -17 -18 -30 -40 -30 -49 0 -52 -31 -5
-58 30 -17 26 -22 -30 -34 -55 -11 -96 -67 -50 -68 8 0 37 -6 63 -13 40 -11
46 -7 36 21 -9 23 3 50 36 80 37 34 43 51 25 69 -22 22 1 34 51 25 10 -2 10 8
2 21 -10 16 -4 20 19 11 27 -10 33 0 33 53 0 46 -9 66 -31 66 -17 0 -26 -11
-20 -26z"/>
<path d="M5106 6648 c-46 -49 -82 -92 -80 -95 7 -10 -111 -113 -129 -113 -9 0
-17 -16 -17 -35 -1 -27 -4 -29 -18 -8 -13 20 -21 21 -31 4 -11 -17 -27 -14
-58 12 -24 20 -32 23 -18 7 14 -15 25 -42 25 -60 0 -71 80 -33 203 97 148 156
237 258 237 273 0 27 -38 0 -114 -82z"/>
<path d="M5490 6281 c-275 -233 -544 -465 -598 -515 -104 -96 -174 -84 -142
24 7 22 14 49 17 60 2 11 9 29 16 40 7 11 13 90 15 175 l4 155 -54 0 -54 0 13
-355 c7 -195 15 -742 18 -1215 3 -473 10 -995 16 -1160 9 -264 16 -304 30
-190 2 17 10 46 18 65 9 19 9 58 2 87 -7 29 -5 46 6 40 10 -6 12 16 4 53 -7
36 -5 108 4 162 12 67 10 105 -6 125 -13 15 -15 28 -5 28 18 0 18 115 -1 1284
-6 397 -5 414 33 423 28 8 36 22 29 51 -8 29 1 44 30 53 32 11 35 17 13 31
-27 17 -12 19 183 28 28 2 64 11 79 20 16 10 83 18 149 17 67 0 101 4 76 8
-56 10 -39 45 20 45 56 0 23 31 -52 48 -37 9 -52 6 -43 -7 7 -12 -5 -21 -29
-21 -22 0 -41 10 -41 21 0 12 -8 16 -18 10 -10 -6 -14 6 -8 27 5 21 33 44 62
52 36 9 44 17 26 29 -18 11 -11 19 24 28 27 7 71 35 97 62 26 28 58 50 71 51
13 0 30 10 38 23 9 14 5 18 -9 9 -13 -8 -23 -9 -23 -2 0 7 27 21 60 33 33 12
60 35 60 52 0 18 6 26 13 19 7 -7 39 9 70 36 32 26 70 44 86 38 15 -6 33 -1
40 11 8 12 0 27 -17 33 -34 13 3 68 45 68 12 0 27 10 35 23 10 16 5 18 -14 7
-15 -9 -21 -9 -12 1 8 9 35 20 59 23 66 10 78 32 71 126 l-6 85 -500 -424z"/>
<path d="M760 6640 c17 -11 23 -20 14 -20 -8 0 -5 -19 7 -42 16 -30 16 -39 1
-29 -13 8 -22 -1 -22 -19 0 -18 10 -26 21 -19 12 7 39 -3 61 -23 29 -26 33
-39 14 -50 -19 -12 -17 -19 7 -28 20 -8 29 -27 22 -51 -5 -22 0 -39 13 -39 12
0 22 -13 22 -30 0 -19 19 -30 50 -30 45 0 48 4 25 40 -13 22 -30 40 -36 40 -7
0 -13 11 -14 25 -6 65 -21 98 -61 136 -24 22 -44 56 -44 76 0 43 -38 83 -79
83 -27 -1 -27 -3 -1 -20z"/>
<path d="M4684 6326 c3 -20 -5 -34 -19 -31 -14 3 -25 -11 -25 -30 -1 -30 -4
-31 -22 -5 -16 23 -18 16 -8 -28 12 -55 10 -57 -24 -30 -32 25 -33 25 -11 -4
13 -17 22 -36 20 -41 -3 -5 15 14 40 42 25 28 45 58 45 66 0 8 13 15 29 15 47
0 51 30 9 57 -35 21 -39 20 -34 -11z"/>
<path d="M1621 5980 c-14 -10 -41 -1672 -41 -2591 l0 -442 -180 -144 c-155
-124 -187 -162 -184 -223 8 -216 24 -507 28 -510 7 -6 173 21 349 58 101 21
132 21 170 -1 75 -41 1937 -39 1937 3 0 33 -29 35 -426 30 l-235 -3 5 216 6
217 70 22 c100 32 747 54 875 29 71 -14 143 -47 220 -105 63 -46 118 -86 121
-88 21 -12 21 -108 -1 -108 -15 0 -17 -6 -5 -15 26 -19 28 -126 2 -110 -11 7
-13 -3 -5 -24 13 -34 3 -35 -142 -23 -85 7 -181 13 -213 12 -33 -1 -64 6 -70
16 -51 72 -240 88 -216 17 7 -23 140 -68 170 -58 33 11 30 -6 -8 -44 -22 -22
-28 -49 -19 -86 11 -41 18 -47 32 -24 10 16 19 19 19 6 0 -12 -14 -34 -31 -48
-42 -35 -7 -64 58 -48 41 10 58 32 75 96 21 80 47 112 88 112 11 0 7 -8 -10
-19 -27 -17 -27 -19 0 -20 17 0 53 -5 80 -11 44 -9 45 -7 10 9 -35 17 -32 19
23 21 34 0 90 7 125 14 61 12 62 11 61 -65 -2 -111 -28 -175 -46 -116 -8 23
-38 63 -67 90 l-53 48 44 -70 c24 -38 68 -113 98 -166 l55 -96 205 4 205 3
111 -138 c62 -75 122 -151 135 -167 54 -70 371 -459 473 -583 194 -232 333
-404 410 -506 l75 -100 -11 120 c-16 172 -16 173 -53 163 -43 -11 -105 22 -89
47 6 11 -8 19 -31 19 -91 0 -11 40 86 43 l104 4 -90 8 c-93 8 -160 43 -89 47
21 1 53 4 69 7 17 2 48 6 69 8 57 5 11 43 -61 52 -130 15 -134 18 -38 31 l100
14 -125 3 c-69 2 -125 12 -125 23 0 11 -40 20 -89 20 -49 0 -94 9 -101 20 -8
13 60 20 189 20 187 0 272 27 146 46 -51 7 -50 8 10 11 47 2 65 -6 65 -28 0
-29 3 -29 31 -1 36 36 24 69 -26 70 -84 3 -106 10 -98 33 7 16 -20 24 -89 24
-54 0 -98 -8 -98 -18 0 -9 -8 -17 -19 -17 -10 0 -16 16 -12 35 5 25 -6 35 -39
35 -25 0 -42 -7 -37 -15 5 -8 -10 -15 -33 -15 -27 0 -37 8 -28 23 10 16 -2 20
-37 13 -37 -7 -49 -2 -41 17 6 15 43 28 83 30 l73 3 -70 9 c-57 8 -63 12 -30
24 22 9 65 7 95 -4 41 -14 360 -11 430 4 34 7 -11 31 -60 32 -409 5 -598 17
-465 29 l140 13 -140 6 c-111 5 -128 9 -80 21 54 14 50 16 -40 21 l-100 5 130
15 c72 8 219 15 328 17 248 3 244 19 -4 24 -102 1 -190 12 -197 23 -16 26 395
1 421 -25 35 -35 63 -22 67 30 l5 51 -432 -2 c-238 -1 -437 4 -443 10 -7 6 8
11 32 11 50 0 56 25 13 60 -56 46 -31 64 80 57 61 -4 110 -1 110 5 0 7 20 10
45 8 25 -3 45 -7 45 -9 0 -10 245 -18 292 -9 191 36 -140 95 -402 72 -5 -1
-28 -7 -50 -14 -32 -11 -34 -10 -10 7 22 16 -23 23 -168 27 -149 5 -201 13
-208 34 -7 20 1 24 23 16 18 -7 33 -5 33 4 0 30 -65 72 -100 66 -35 -6 -36 14
-8 151 l9 45 453 0 c483 0 564 9 231 25 -121 6 -218 21 -236 36 -16 13 -36 19
-43 12 -7 -7 0 -13 16 -13 23 -1 23 -4 -2 -20 -39 -25 -120 -25 -120 0 0 11
-10 20 -21 20 -12 0 -16 -8 -10 -18 6 -10 -5 -15 -24 -12 -19 4 -42 8 -51 8
-32 3 7 39 41 39 19 0 58 5 85 12 44 12 362 18 500 10 l50 -3 -50 -15 c-34
-11 -15 -14 60 -11 137 7 136 6 100 30 -22 14 -4 19 65 20 52 0 95 7 95 16 0
24 -887 3 -902 -20 -24 -38 -108 -8 -115 41 -10 73 14 143 44 131 30 -11 55
128 45 242 -3 33 -7 526 -9 1096 -2 570 -10 1032 -18 1027 -8 -5 -12 168 -9
384 l6 393 479 -7 c475 -7 479 -6 479 35 0 39 -12 42 -145 44 -80 2 -314 8
-520 15 l-375 13 13 -1200 c7 -660 6 -1396 -2 -1635 l-15 -435 -61 0 -61 0 13
186 13 186 -60 58 c-33 32 -60 71 -60 87 0 16 -38 64 -84 107 l-84 77 -9 192
c-9 219 -40 217 -46 -3 -10 -343 -32 779 -34 1765 l-3 1085 -985 4 c-1592 7
-1857 7 -1874 -4z m2195 -240 c6 -156 41 -245 47 -119 5 118 12 168 27 204 10
25 5 35 -19 35 -19 0 -28 9 -20 22 9 14 40 16 86 7 40 -8 84 -15 98 -15 14 0
26 -15 26 -32 1 -19 9 -13 21 16 47 117 52 17 57 -1003 0 -196 9 -315 21 -315
13 0 19 223 17 633 -3 599 -1 635 35 663 27 21 29 26 6 19 -17 -6 -44 -3 -60
7 -30 19 -28 19 87 24 67 4 75 -1 77 -46 2 -34 6 -39 12 -15 37 144 48 -33 44
-734 -2 -423 -9 -768 -16 -768 -7 1 -59 1 -117 -1 l-105 -2 0 -90 c0 -49 9
-90 20 -90 11 0 20 32 20 72 0 70 1 71 76 66 41 -3 86 1 100 9 18 11 24 -11
24 -86 0 -67 -8 -101 -25 -101 -17 -1 -16 -6 4 -19 22 -14 28 -55 24 -171 -2
-88 3 -148 14 -142 10 6 17 -25 16 -68 -1 -44 -9 -80 -18 -80 -8 0 -15 -10
-15 -21 0 -12 8 -16 18 -11 9 6 14 -66 9 -163 -4 -96 -7 -212 -7 -258 1 -46
-8 -89 -19 -96 -14 -9 -21 33 -21 121 0 157 -15 165 -22 13 -6 -129 -12 -139
-95 -152 l-68 -10 14 138 c8 84 5 152 -8 177 -13 24 -13 41 -2 45 33 12 31
258 -1 278 -23 14 -30 -8 -39 -117 -7 -74 -14 -113 -15 -87 -3 28 -14 43 -29
37 -14 -5 -41 5 -60 22 -19 16 -35 21 -35 10 0 -11 -24 -31 -54 -44 -60 -28
-34 -61 48 -62 75 0 105 -167 36 -205 -25 -14 -26 -25 -7 -61 14 -24 27 -70
31 -101 3 -31 24 -80 46 -108 122 -155 -46 -220 -400 -154 -16 3 -34 8 -40 10
-26 9 -280 8 -280 -2 0 -11 -49 -17 -158 -19 -66 -1 -67 -2 -31 -41 29 -33 30
-38 5 -29 -19 8 -46 -7 -71 -39 -55 -69 -65 -65 -65 29 0 56 9 80 29 80 22 0
24 13 10 64 -16 55 -12 72 30 115 55 58 73 203 35 275 -13 24 -24 66 -24 94 0
65 -39 88 -73 41 -15 -20 -27 -26 -27 -13 0 13 -26 24 -58 24 l-57 0 -26 -200
c-25 -196 -24 -202 18 -247 45 -47 58 -141 23 -163 -35 -22 -117 -31 -127 -14
-9 14 -430 11 -736 -6 -138 -8 -160 25 -159 234 0 75 -8 136 -18 136 -9 0 -13
-45 -9 -100 5 -58 0 -100 -11 -100 -11 0 -20 -13 -20 -30 0 -16 11 -30 24 -30
18 0 18 -6 2 -22 -13 -13 -19 -33 -14 -46 5 -12 -40 -71 -100 -130 -62 -62
-104 -119 -98 -135 7 -18 -6 -28 -37 -29 l-47 -2 50 -16 c28 -9 38 -17 23 -18
-20 -2 -25 -34 -20 -132 7 -133 -11 -162 -63 -100 -13 16 -31 25 -40 20 -9 -5
-27 4 -41 21 -19 23 -29 25 -40 7 -9 -14 -20 1 -28 39 -8 35 -25 63 -38 63
-13 0 -10 9 7 20 25 17 25 23 3 37 -18 12 20 29 119 53 l145 36 -56 48 c-51
44 -71 48 -214 42 -86 -3 -157 0 -157 7 0 27 284 217 306 204 13 -7 17 -6 9 3
-17 19 60 110 93 110 15 0 23 208 24 675 1 371 4 720 8 775 3 55 6 370 5 700
-2 678 1 750 31 750 9 0 13 -303 8 -673 -6 -432 -2 -668 10 -661 12 7 25 273
32 647 9 445 20 638 36 648 16 10 11 21 -15 37 -29 18 -9 20 93 13 72 -5 141
-3 154 5 12 8 417 14 899 14 l877 0 6 -150z m1219 -2674 c-3 -207 -6 -43 -6
364 0 407 3 576 6 376 3 -200 3 -533 0 -740z m-1947 189 c-7 -82 -5 -116 8
-98 24 34 40 9 39 -62 l0 -54 -37 48 c-38 47 -52 191 -26 259 23 59 27 32 16
-93z m1445 -390 c132 -99 247 -209 237 -226 -5 -7 -78 -20 -163 -27 -193 -18
-227 -35 -227 -117 l0 -64 -57 62 c-31 34 -76 68 -100 76 -92 29 -72 275 27
333 97 57 171 47 283 -37z m-1533 -123 c0 -10 5 -33 12 -50 18 -46 -46 -41
-71 5 -11 21 -14 43 -7 50 19 20 66 15 66 -5z m-124 -105 c122 -29 141 -49 65
-64 -63 -12 -86 -53 -30 -53 17 0 26 9 19 20 -7 11 -3 20 8 20 27 0 36 -18 52
-105 13 -65 9 -75 -23 -75 -29 -1 -31 -4 -9 -18 15 -10 22 -32 16 -49 -7 -18
-4 -37 7 -44 10 -6 19 -33 19 -60 l0 -49 -307 0 c-416 0 -854 22 -841 43 6 9
-12 17 -40 17 -73 0 -132 73 -132 162 0 71 170 203 340 264 59 21 763 14 856
-9z m1861 -171 c17 -17 22 -46 14 -77 -8 -33 -1 -61 18 -81 51 -51 42 -529
-10 -498 -9 6 -22 2 -29 -10 -17 -27 -202 -26 -254 2 -31 16 -45 16 -56 -2
-44 -72 -54 268 -10 353 34 65 40 218 10 237 -11 7 -20 34 -20 60 0 71 269 84
337 16z m243 -386 c0 -11 -31 -20 -70 -20 -38 0 -70 9 -70 20 0 11 32 20 70
20 39 0 70 -9 70 -20z m500 -698 c0 -8 -31 -14 -70 -14 -83 2 -93 26 -15 36
60 8 85 2 85 -22z"/>
<path d="M2361 5355 c0 -289 -6 -590 -14 -670 -8 -90 -5 -145 7 -145 12 0 21
189 24 495 3 272 9 499 14 504 5 5 8 -392 7 -883 l-2 -893 -64 1 c-153 1 -213
-5 -213 -24 0 -11 13 -20 29 -20 39 0 49 -79 17 -144 -41 -86 -17 -114 96
-110 67 3 101 13 108 34 7 24 42 29 165 27 93 -2 166 6 184 20 21 17 25 17 15
0 -17 -27 119 -26 164 2 19 11 24 10 15 -5 -10 -15 96 -22 369 -22 215 0 392
-9 405 -20 62 -51 271 -27 219 26 -26 25 -18 192 9 192 14 0 25 9 25 20 0 16
-53 27 -120 24 -5 0 -125 -5 -265 -12 -160 -8 -255 -5 -255 7 0 11 16 15 35 8
28 -8 29 -7 7 9 -30 21 -88 10 -73 -14 5 -8 -62 -16 -148 -17 -123 -2 -160 3
-169 27 -9 23 -20 25 -52 8 -22 -12 -40 -14 -40 -6 0 9 -7 7 -15 -4 -9 -12
-95 -16 -225 -9 -115 7 -187 14 -160 18 37 4 41 8 15 15 -20 5 -29 19 -22 31
8 12 14 99 14 193 0 117 2 135 7 57 5 -63 17 -115 27 -115 12 0 19 279 19 721
l0 720 528 -5 c451 -5 532 -2 551 24 20 27 21 27 7 0 -19 -36 -22 -1160 -3
-1160 30 0 35 86 36 633 1 344 10 584 22 596 12 12 19 -172 19 -521 0 -479 4
-545 35 -589 19 -27 32 -51 30 -54 -14 -14 -2 -45 16 -45 12 0 15 10 7 23 -8
14 -5 18 7 10 23 -14 23 -49 -1 -86 -8 -13 -3 -28 11 -34 20 -8 20 -10 0 -11
-39 -3 -29 -38 15 -52 49 -15 53 -50 6 -50 -25 0 -28 -6 -12 -22 13 -13 18
-35 12 -50 -6 -16 11 -37 42 -51 62 -28 68 -57 12 -57 -22 0 -40 -9 -40 -20 0
-12 -22 -15 -52 -8 -48 12 -50 10 -30 -28 22 -41 75 -36 184 17 18 9 56 13 85
10 29 -3 53 2 53 12 0 9 -10 17 -22 17 -12 0 -18 12 -12 28 6 15 -2 53 -19 84
-16 31 -33 93 -38 137 -19 174 -82 268 -128 192 -25 -39 -77 -1 -87 65 -5 35
-11 302 -13 594 -1 291 -10 537 -18 545 -9 9 -310 16 -669 16 l-654 0 0 67 c0
37 6 95 13 130 l12 62 618 0 617 0 0 -65 c1 -119 35 -129 43 -13 l7 108 -620
0 c-341 1 -644 8 -674 16 l-55 14 0 -525z m309 133 c-94 -15 -225 -17 -217 -3
5 8 65 14 133 12 68 -1 106 -5 84 -9z m710 -6 c0 -7 -45 -13 -100 -13 -55 1
-100 7 -100 15 0 7 45 13 100 13 55 0 100 -7 100 -15z m-884 -407 c-3 -287 -6
-339 -15 -205 -12 189 -5 590 10 590 5 0 7 -173 5 -385z m94 -1374 c32 -3 -36
-40 -75 -41 -19 0 -35 12 -35 27 0 15 18 24 45 21 25 -2 54 -6 65 -7z m190 -5
c0 -9 20 -15 45 -15 43 2 43 3 5 20 -37 18 -38 18 -2 14 21 -3 43 -17 48 -33
7 -22 -12 -25 -98 -15 -60 7 -110 12 -113 13 -42 4 12 39 55 36 33 -2 60 -12
60 -20z m-322 -48 c7 -7 -6 -10 -28 -8 -71 8 -93 1 -77 -25 11 -19 7 -18 -17
1 -22 17 -37 19 -45 5 -8 -12 -23 -21 -35 -21 -14 0 -13 9 2 28 18 22 18 31
-2 39 -14 6 23 7 82 2 60 -5 114 -14 120 -21z"/>
<path d="M2040 5615 c0 -137 -6 -439 -13 -672 -12 -385 -10 -423 19 -412 28
11 32 77 35 566 3 646 6 702 42 725 17 11 19 17 4 18 -13 0 -38 5 -55 12 -28
11 -32 -18 -32 -237z"/>
<path d="M1925 5685 c-3 -58 -14 -105 -25 -105 -11 0 -20 -10 -20 -21 0 -12
11 -15 25 -6 17 10 16 4 -2 -19 -21 -26 -22 -41 -5 -62 18 -21 19 -222 1 -222
-1 0 -6 -135 -11 -300 -5 -165 -12 -320 -16 -345 -7 -48 42 -65 59 -20 5 14 7
291 4 615 -3 325 -8 543 -10 485z"/>
<path d="M2219 5585 c-1 -19 -2 -129 -3 -245 -1 -129 -7 -191 -17 -160 -11 38
-16 24 -18 -60 -5 -142 -4 -507 0 -520 2 -5 3 -17 1 -25 -1 -8 11 -15 28 -15
26 0 30 72 29 530 0 292 -5 530 -10 530 -5 0 -10 -16 -10 -35z"/>
<path d="M1870 5372 c0 -123 19 -130 26 -10 3 54 -2 98 -10 98 -9 0 -16 -40
-16 -88z"/>
<path d="M3215 5266 c36 -5 94 -5 130 0 36 4 7 8 -65 8 -71 0 -101 -4 -65 -8z"/>
<path d="M3016 5201 c9 -64 64 -65 64 0 0 20 16 40 35 45 19 5 3 10 -37 12
-68 2 -71 -1 -62 -57z"/>
<path d="M2890 5082 c-63 -13 -96 -267 -40 -307 12 -9 8 -15 -10 -16 -20 -1
-17 -7 10 -19 47 -20 263 -26 244 -7 -8 7 -41 12 -74 11 -96 -2 -69 25 30 32
53 3 90 -3 90 -15 0 -12 23 -21 50 -21 49 0 50 2 50 167 l0 168 -75 12 c-89
15 -193 13 -275 -5z"/>
<path d="M4300 4962 c0 -22 -9 -45 -20 -52 -31 -19 -24 -56 9 -43 19 7 31 -6
37 -43 4 -30 9 -7 11 50 2 57 -6 109 -17 116 -11 7 -20 -6 -20 -28z"/>
<path d="M3385 4815 c4 -14 43 -28 87 -31 93 -8 72 24 -29 43 -48 9 -64 6 -58
-12z"/>
<path d="M4280 4651 c0 -70 39 -123 41 -57 1 20 6 56 10 81 6 30 -1 45 -21 45
-21 0 -30 -21 -30 -69z"/>
<path d="M2583 4330 c7 -226 8 -230 54 -230 42 0 47 -7 39 -70 -6 -51 0 -70
20 -70 21 0 25 17 16 68 -10 52 -5 70 20 80 49 19 82 -20 73 -85 -8 -55 74
-110 111 -74 6 6 -5 11 -23 11 -27 0 -30 8 -15 36 25 46 -6 100 -75 129 -52
23 -51 24 37 34 82 9 77 11 -60 22 -144 13 -142 13 53 11 112 -1 199 5 194 13
-5 8 -82 15 -170 15 -139 0 -160 4 -149 32 7 17 12 43 12 58 0 40 105 85 175
75 33 -5 79 1 101 13 43 23 64 -3 64 -80 0 -21 9 -38 20 -38 11 0 20 35 20 78
0 131 14 148 80 99 32 -24 71 -37 87 -31 17 7 34 2 37 -9 4 -11 32 -22 62 -24
32 -2 59 -17 66 -38 6 -19 24 -48 41 -65 27 -27 7 -30 -177 -33 -132 -2 -177
-7 -126 -15 112 -17 115 -62 3 -62 -102 0 -119 -12 -90 -65 16 -30 14 -44 -6
-57 -20 -13 -30 0 -38 48 -10 53 -13 44 -20 -51 -8 -104 -5 -115 31 -116 37 0
37 -2 5 -21 -20 -11 -54 -15 -77 -8 -63 21 -238 -9 -238 -41 0 -43 36 -53 109
-29 75 24 212 8 205 -25 -2 -11 7 -23 22 -26 14 -3 16 -1 5 4 -13 6 -9 36 10
81 20 50 23 79 9 96 -15 18 -12 29 11 38 44 17 141 -8 108 -28 -19 -12 -19
-31 -3 -78 12 -35 20 -74 16 -88 -3 -13 -2 -17 3 -9 5 8 17 15 27 15 19 0 98
73 98 90 0 6 -34 11 -75 13 -46 1 -58 6 -30 11 48 9 67 130 25 156 -42 26 -17
50 47 45 71 -5 169 -95 104 -95 -17 0 -31 -13 -31 -30 0 -16 11 -30 25 -30 17
-1 15 -7 -5 -20 -25 -16 -23 -20 10 -22 33 -2 32 -5 -10 -18 -33 -11 -38 -17
-15 -18 19 -1 35 -10 35 -19 0 -9 24 -28 54 -41 44 -20 49 -28 25 -45 -23 -17
-22 -18 8 -9 20 7 47 12 60 12 13 0 35 19 50 42 24 40 23 41 -36 28 -39 -8
-61 -5 -61 8 0 12 -13 22 -30 22 -44 0 -36 31 13 53 55 25 64 120 13 134 -36
9 -38 131 -7 386 11 87 13 87 -502 87 l-450 0 6 -230z"/>
<path d="M1827 4325 l-103 -7 -9 -94 c-10 -111 -10 -111 43 -94 35 10 38 19
20 53 -34 65 -8 97 81 97 59 0 81 8 81 30 0 17 -2 28 -5 26 -3 -2 -51 -7 -108
-11z"/>
<path d="M1964 4220 c0 -44 9 -80 19 -80 21 0 16 138 -6 152 -8 5 -14 -27 -13
-72z"/>
<path d="M2037 4147 c-7 -24 -5 -81 3 -127 8 -46 10 -103 4 -127 -9 -37 -7
-39 20 -17 18 14 27 42 22 65 -6 21 -2 39 9 39 25 0 27 97 3 112 -10 5 -19 -1
-21 -16 -1 -14 -8 6 -15 44 -11 59 -15 63 -25 27z"/>
<path d="M1935 4098 c-19 -11 -35 -33 -35 -49 0 -21 -26 -29 -100 -29 l-100 0
0 -530 c0 -458 4 -530 30 -530 26 0 30 70 30 509 l0 509 85 6 c58 4 86 15 87
36 5 76 16 61 28 -40 l13 -110 4 125 c2 69 1 125 -2 124 -3 0 -21 -9 -40 -21z"/>
<path d="M4143 3915 c4 -100 4 -101 12 -20 l7 85 99 0 c55 0 99 9 99 20 0 11
-49 20 -110 20 l-110 0 3 -105z"/>
<path d="M1899 3815 c-1 -58 -4 -163 -7 -235 -3 -71 1 -148 10 -170 9 -22 16
82 17 235 0 151 -3 275 -9 275 -5 0 -11 -47 -11 -105z"/>
<path d="M2481 3855 c2 -43 3 -43 19 -5 17 40 17 40 19 0 1 -23 8 -31 16 -19
17 24 107 29 92 5 -5 -9 4 -16 21 -16 20 0 27 12 20 35 -10 30 -7 29 20 -4 31
-38 32 -38 32 5 0 40 -10 44 -120 44 -112 0 -120 -3 -119 -45z"/>
<path d="M1963 3705 c3 -140 11 -124 21 40 4 52 -1 95 -9 95 -8 0 -14 -61 -12
-135z"/>
<path d="M1960 3442 c0 -31 -13 -68 -30 -82 -20 -16 -29 -56 -27 -117 l4 -93
8 80 c17 172 40 102 34 -102 l-7 -215 41 41 c46 46 62 278 21 303 -20 13 -31
64 -26 126 1 17 31 44 66 59 65 26 65 27 15 40 -87 25 -99 20 -99 -40z"/>
<path d="M2345 3339 c-25 -10 -45 -13 -45 -7 0 6 -12 -2 -28 -17 -15 -15 -56
-26 -90 -23 -68 4 -99 -23 -65 -57 16 -16 25 -12 34 12 17 43 69 43 69 0 0
-30 3 -30 35 -2 33 30 35 28 39 -26 4 -47 -4 -59 -36 -59 -22 0 -35 -9 -28
-20 7 -11 3 -20 -9 -20 -11 0 -21 14 -21 30 0 33 -31 41 -49 12 -6 -10 0 -22
14 -27 20 -7 20 -15 0 -39 -37 -45 17 -89 69 -56 31 20 31 21 2 13 -46 -15
-27 30 27 64 37 24 41 23 31 -5 -8 -21 -2 -32 17 -32 25 0 25 -8 -4 -55 -19
-30 -27 -49 -18 -41 9 8 48 1 87 -15 38 -16 75 -25 80 -20 5 6 -12 19 -38 29
-26 11 -39 20 -27 21 30 2 25 81 -5 81 -41 0 -30 37 26 94 42 42 55 46 70 24
15 -23 17 -23 18 2 0 24 4 25 18 3 13 -21 19 -20 28 5 8 19 3 30 -12 27 -14
-3 -24 16 -23 47 1 29 -10 51 -25 51 -14 0 -26 -6 -26 -15 0 -8 -16 -11 -35
-8 -19 4 -39 8 -45 9 -5 1 4 10 20 21 37 24 5 24 -55 -1z m44 -38 c6 -10 2
-24 -9 -31 -11 -7 -17 -19 -12 -27 5 -8 -9 -16 -31 -18 -29 -2 -37 6 -29 28 7
17 12 39 12 49 0 24 54 23 69 -1z"/>
<path d="M3531 3295 c11 -55 -8 -119 -31 -105 -9 6 -20 2 -23 -8 -4 -11 -32
-25 -62 -33 -44 -11 -53 -7 -44 15 6 17 -1 29 -17 29 -18 0 -25 -14 -19 -36
17 -66 205 -36 205 33 0 15 12 35 27 44 14 9 32 34 40 56 13 39 13 39 -17 1
-29 -38 -30 -38 -30 5 0 24 -8 44 -19 44 -10 0 -15 -20 -10 -45z"/>
<path d="M3585 3166 c-12 -35 -12 -77 0 -111 20 -61 55 -56 55 7 0 22 18 59
40 82 22 24 35 48 30 53 -6 6 -24 -7 -42 -28 -17 -22 -26 -29 -20 -16 6 12 -1
33 -16 45 -22 19 -32 12 -47 -32z"/>
<path d="M2498 3050 c-10 -47 -7 -150 5 -150 21 0 31 90 15 131 -8 22 -17 30
-20 19z"/>
<path d="M1830 2401 c66 -9 173 -18 237 -19 91 -2 115 -8 107 -29 -7 -19 5
-28 38 -28 50 0 66 26 23 40 -14 5 2 5 35 0 33 -5 70 -22 83 -38 17 -21 25
-23 31 -5 10 30 76 43 76 15 0 -11 9 -14 20 -7 11 7 20 2 20 -10 0 -13 27 -3
60 20 48 34 60 37 60 13 0 -43 41 -63 61 -31 10 15 29 29 43 30 71 6 82 9 68
23 -9 8 -84 16 -169 18 -84 2 -324 8 -533 14 -237 6 -335 4 -260 -6z"/>
<path d="M5905 5846 c-92 -12 -81 -46 15 -46 58 0 80 8 80 30 0 17 -7 29 -15
27 -8 -2 -44 -7 -80 -11z"/>
<path d="M1034 5826 c-24 -38 -24 -273 -1 -280 28 -10 110 73 96 96 -20 32 77
98 130 88 68 -12 121 6 121 41 0 16 14 29 31 29 17 0 26 -9 19 -20 -7 -11 -4
-20 7 -20 15 0 51 58 37 61 -68 13 -432 18 -440 5z"/>
<path d="M5390 5740 c-53 -14 -49 -16 36 -18 60 -1 92 6 84 18 -14 22 -32 22
-120 0z"/>
<path d="M0 4760 c0 -808 4 -917 30 -907 41 15 46 1517 5 1534 -20 8 -20 10 0
11 16 1 25 33 25 85 0 50 13 99 33 120 35 39 40 34 -63 66 -26 9 -30 -102 -30
-909z"/>
<path d="M180 5525 c8 -52 16 -234 17 -405 12 -1370 17 -1450 88 -1455 25 -2
48 -13 51 -24 31 -92 39 94 36 850 -3 702 -9 875 -30 888 -15 9 -21 27 -13 39
7 12 24 17 35 9 13 -8 16 -4 8 9 -7 12 10 37 38 56 73 48 54 72 -81 100 -172
37 -165 40 -149 -67z"/>
<path d="M661 5581 c-36 -23 0 -40 100 -50 125 -13 121 -31 -6 -31 -95 0 -111
-5 -106 -35 4 -30 272 -76 308 -52 20 13 -25 48 -49 39 -19 -7 -28 5 -28 39 0
27 -2 49 -5 49 -3 0 -46 13 -97 28 -50 16 -103 21 -117 13z"/>
<path d="M1030 5439 c-25 -10 23 -17 128 -18 93 0 163 5 156 11 -19 20 -239
25 -284 7z"/>
<path d="M5087 4757 c7 -332 13 -1053 13 -1601 0 -617 7 -994 19 -987 10 7 15
29 11 51 -4 22 2 45 13 52 14 9 17 495 8 1540 l-13 1528 50 0 c27 0 54 -7 59
-15 5 -8 149 -14 320 -14 171 1 307 -4 303 -11 -5 -8 23 -13 61 -12 38 1 69
12 69 24 0 22 -395 48 -748 48 l-178 0 13 -603z"/>
<path d="M601 4597 c-1 -389 6 -696 14 -684 18 28 16 1362 -1 1380 -7 6 -12
-307 -13 -696z"/>
<path d="M511 3882 c-7 -12 -4 -22 7 -22 11 0 16 -13 10 -29 -8 -20 0 -25 30
-17 41 10 42 4 44 -277 2 -184 8 -260 17 -211 8 42 13 154 11 250 -6 309 -6
310 -43 295 -19 -7 -40 -2 -48 10 -10 17 -18 17 -28 1z"/>
<path d="M1357 3735 c-4 -80 -2 -194 5 -255 8 -77 12 -33 15 145 3 275 -10
346 -20 110z"/>
<path d="M804 3813 c35 -35 414 -34 452 2 22 20 -23 25 -226 25 -210 0 -248
-4 -226 -27z"/>
<path d="M528 3550 c0 -132 3 -183 7 -114 4 69 4 177 0 240 -4 63 -7 6 -7
-126z"/>
<path d="M0 3672 c0 -79 4 -87 41 -77 29 7 37 20 28 43 -8 17 -19 52 -24 77
-17 77 -45 50 -45 -43z"/>
<path d="M100 3542 c-67 -9 -91 -22 -97 -50 -5 -28 1 -35 24 -26 18 7 37 3 44
-7 7 -11 0 -18 -15 -14 -16 3 -23 -10 -20 -32 4 -20 -2 -32 -13 -25 -11 7 -16
-4 -13 -23 4 -19 8 -52 8 -72 2 -32 7 -34 33 -12 21 17 27 43 18 82 -7 35 -4
57 9 57 12 0 22 16 22 35 1 30 3 31 20 5 13 -20 19 -22 20 -5 0 14 23 25 50
25 46 0 50 -7 50 -91 0 -110 -25 -138 -130 -146 -101 -9 -110 -15 -110 -75 0
-49 1 -49 135 -37 178 16 185 19 185 78 0 28 -11 51 -25 51 -17 0 -26 38 -27
115 -2 75 3 101 13 75 13 -31 17 -23 18 35 1 83 0 84 -199 57z"/>
<path d="M187 3435 c-19 -30 -23 -159 -4 -139 16 18 42 164 29 164 -5 0 -17
-11 -25 -25z"/>
<path d="M866 3150 c0 -66 4 -91 8 -55 5 36 5 90 0 120 -4 30 -8 1 -8 -65z"/>
<path d="M430 3152 c-77 -36 -92 -51 -66 -61 19 -8 44 -9 55 -2 12 8 21 3 21
-9 0 -12 -56 -48 -125 -79 l-125 -57 7 -157 c6 -134 10 -152 32 -121 15 19 45
39 67 43 23 5 59 18 81 30 147 78 87 -2 -64 -87 -143 -80 -192 -212 -73 -195
l50 7 -50 -55 c-27 -31 -40 -50 -28 -43 15 8 27 -13 35 -58 13 -83 -4 -192
-28 -177 -9 5 -21 2 -27 -8 -6 -10 15 -23 47 -30 44 -9 58 -22 56 -53 -3 -28
-13 -37 -34 -29 -16 6 -23 5 -16 -3 8 -8 -1 -26 -20 -40 -32 -24 -31 -25 9
-15 44 11 119 81 112 104 -2 7 9 11 24 7 15 -3 33 4 40 15 7 12 20 21 29 21
29 0 -2 -80 -41 -107 -21 -15 -33 -32 -26 -38 61 -61 -14 -453 -87 -454 -71
-2 -12 -31 63 -31 103 0 117 10 120 85 2 48 12 56 82 67 l80 12 -87 3 c-74 3
-85 8 -74 38 18 45 14 365 -7 595 -9 99 -13 239 -8 310 5 72 8 162 7 200 -7
158 22 360 51 360 15 0 28 14 28 30 0 37 9 39 -110 -18z"/>
<path d="M75 2901 l-75 -31 0 -143 c0 -111 7 -145 31 -155 18 -6 26 -3 19 8
-7 11 9 20 35 20 67 0 79 18 44 67 -37 53 -37 81 3 164 43 92 31 107 -57 70z"/>
<path d="M569 2625 c4 -31 37 -36 302 -41 163 -3 291 1 283 9 -7 7 -4 25 9 40
18 22 -31 27 -289 27 -284 0 -310 -3 -305 -35z"/>
<path d="M65 2520 l-65 -39 0 -353 0 -353 65 50 c36 27 74 52 85 57 12 5 16
62 9 148 -7 77 -14 120 -15 95 -2 -25 -12 -45 -22 -45 -50 0 -59 231 -11 291
18 22 26 28 19 14 -7 -14 -3 -25 8 -25 11 0 19 45 19 100 -1 113 -3 115 -92
60z"/>
<path d="M600 2547 c17 -6 44 -15 60 -21 47 -17 120 -19 120 -2 0 8 83 17 185
21 129 5 97 7 -105 9 -159 2 -276 -2 -260 -7z"/>
<path d="M3893 2427 c-2 -3 -182 -7 -399 -9 -217 -2 -400 -11 -406 -21 -6 -9
91 -17 216 -18 124 0 403 -2 619 -5 217 -2 390 0 385 5 -9 9 -407 55 -415 48z"/>
<path d="M790 2120 c-8 -13 31 -19 104 -19 83 1 105 7 76 19 -56 24 -165 24
-180 0z"/>
<path d="M1857 2042 c-4 -9 -64 -24 -135 -32 -91 -10 -123 -8 -113 8 7 12 4
22 -8 22 -38 0 -22 -58 23 -82 33 -18 46 -18 52 -1 4 13 15 18 25 12 23 -14
174 26 188 50 7 10 3 23 -7 30 -10 6 -22 3 -25 -7z"/>
<path d="M2575 2045 l-395 -6 0 -49 c0 -31 -11 -50 -30 -50 -16 0 -30 -9 -30
-20 0 -12 63 -20 150 -20 130 0 150 -5 150 -35 -1 -30 -3 -31 -21 -5 -15 22
-17 17 -8 -23 l12 -52 -136 8 c-108 6 -145 17 -172 50 l-35 41 0 -42 c0 -23
-10 -42 -22 -42 -13 0 -19 21 -13 48 14 78 -66 27 -132 -82 l-56 -92 -363 11
c-200 7 -377 15 -393 18 -16 4 -32 -9 -36 -28 -7 -31 7 -35 109 -33 106 2 386
-61 471 -105 19 -10 35 -11 35 -3 -1 43 -40 63 -150 78 -165 22 -71 39 215 38
211 0 215 1 215 46 l0 46 290 -6 c275 -6 325 1 263 38 -84 50 -57 126 45 126
55 0 106 -10 113 -22 10 -16 19 -14 31 5 12 18 17 19 18 3 0 -33 -34 -51 -50
-26 -16 26 -91 25 -130 -1 -40 -26 24 -78 99 -80 46 -2 47 -3 11 -19 -23 -10
235 -18 625 -19 l665 -1 0 70 c0 57 -8 70 -40 70 -22 0 -40 -12 -40 -28 0 -15
-13 -38 -30 -52 -26 -21 -30 -16 -30 34 0 32 -13 76 -29 97 -17 22 -30 54 -30
73 -1 39 -361 51 -1146 41z m211 -46 c31 1 52 -6 46 -16 -15 -23 -172 -40
-172 -19 0 9 11 17 25 17 14 1 7 10 -15 21 -34 16 -32 17 10 7 28 -7 75 -11
106 -10z m737 -143 c13 -21 16 -21 17 1 0 16 12 22 29 16 17 -6 35 -3 42 8 33
55 127 20 107 -40 l-21 -58 -222 -1 c-123 0 -234 8 -246 19 -16 13 -32 9 -49
-11 -34 -41 -53 -38 -66 10 -13 49 -153 56 -236 12 -49 -25 -52 -24 -43 10 7
26 -5 43 -38 55 -29 12 96 16 331 11 281 -5 383 -13 395 -32z"/>
<path d="M1133 1948 c-87 -101 -90 -139 -4 -49 30 32 67 54 81 48 14 -5 32 0
39 11 8 13 1 17 -18 10 -37 -15 -41 14 -7 48 13 13 15 24 5 23 -10 0 -54 -41
-96 -91z"/>
<path d="M1975 2018 c14 -17 19 -38 11 -45 -7 -7 5 -13 26 -13 28 -1 31 -5 11
-18 -20 -13 -18 -19 11 -26 29 -8 38 1 38 36 0 25 -8 41 -17 35 -10 -6 -37 6
-61 26 -29 24 -35 26 -19 5z"/>
<path d="M620 1998 c0 -10 61 -18 135 -18 74 0 185 -6 245 -13 86 -9 105 -7
87 12 -27 29 -467 47 -467 19z"/>
<path d="M4180 1993 c0 -20 82 -169 117 -213 15 -19 58 -89 95 -156 l69 -122
-84 3 c-51 2 -87 -6 -92 -21 -5 -13 -17 -19 -27 -13 -10 6 -24 -3 -30 -20 -15
-37 -48 -41 -48 -6 0 18 -30 23 -100 18 -55 -4 -100 -15 -100 -25 0 -10 -9
-18 -20 -18 -11 0 -20 14 -20 31 0 17 -9 26 -20 19 -18 -11 -1868 -14 -2274
-3 -150 4 -187 -1 -197 -26 -10 -26 -14 -26 -29 -1 -20 32 -234 34 -266 2 -34
-34 427 -51 2084 -75 649 -9 790 -6 804 16 15 23 17 22 18 0 0 -19 8 -22 25
-9 14 11 76 20 139 21 63 1 130 12 150 24 32 21 32 22 -7 11 -24 -6 -50 -2
-57 10 -9 14 10 20 53 17 37 -2 90 3 117 12 66 20 33 -13 -62 -63 -60 -31 -67
-42 -44 -63 21 -20 34 -21 56 -3 16 13 39 17 52 9 15 -9 19 -7 11 6 -8 12 5
28 27 35 51 16 52 82 1 109 -21 12 -41 46 -45 76 -3 33 -17 53 -32 50 -15 -4
-21 3 -14 15 7 11 -1 26 -19 32 -17 7 -64 67 -104 135 -96 160 -127 205 -127
186z"/>
<path d="M1375 1953 c-14 -15 -36 -23 -49 -18 -13 4 -42 -11 -65 -34 -24 -24
-53 -36 -67 -29 -17 10 -17 6 1 -13 21 -23 30 -22 57 5 28 27 39 28 85 4 59
-31 117 -1 63 33 -26 16 -25 18 4 19 45 0 63 33 26 47 -16 6 -40 0 -55 -14z"/>
<path d="M5811 1964 c-8 -7 -177 -15 -377 -16 -258 -1 -364 -8 -370 -25 -4
-12 -36 -23 -71 -24 -53 0 -57 -3 -27 -21 41 -24 365 -15 422 11 26 12 34 11
25 -3 -9 -15 10 -17 59 -5 40 8 102 11 138 5 37 -6 71 -1 79 12 7 12 33 21 57
21 42 -2 42 -2 4 -18 -26 -11 9 -17 104 -17 125 1 143 5 140 36 -2 27 -19 36
-67 36 -35 0 -73 5 -83 11 -10 7 -25 5 -33 -3z"/>
<path d="M207 1859 c-219 -195 -213 -205 13 -21 61 49 114 93 118 96 5 3 3 11
-3 17 -6 7 -64 -35 -128 -92z"/>
<path d="M710 1939 c143 -22 277 -21 150 2 -49 9 -126 15 -170 15 -78 -1 -77
-2 20 -17z"/>
<path d="M1484 1933 c-79 -40 -49 -99 66 -130 172 -45 190 -45 190 5 0 24 11
55 24 68 19 19 18 24 -5 24 -47 -1 -87 -33 -61 -49 36 -22 25 -51 -18 -51 -27
0 -40 13 -40 41 0 29 -17 43 -61 52 -41 8 -58 22 -51 40 6 15 9 26 6 25 -2 -2
-25 -13 -50 -25z"/>
<path d="M4887 1926 c0 -29 25 -35 41 -9 6 10 36 13 67 8 30 -6 48 -3 39 7
-27 28 -147 24 -147 -6z"/>
<path d="M4120 1848 c0 -43 -8 -51 -40 -42 -22 6 -40 2 -40 -8 0 -10 -9 -18
-20 -18 -11 0 -20 20 -20 43 0 54 -10 44 -28 -28 -13 -54 -12 -55 88 -55 96 0
100 2 100 55 1 43 5 48 20 25 17 -27 19 -27 20 0 0 17 -18 42 -40 55 -36 23
-40 20 -40 -27z"/>
<path d="M939 1737 c-49 -57 -114 -131 -144 -165 -50 -58 -52 -64 -20 -88 66
-51 115 -68 59 -21 l-56 47 131 146 c111 123 152 184 125 184 -3 0 -46 -46
-95 -103z"/>
<path d="M5815 1806 c36 -5 94 -5 130 0 36 4 7 8 -65 8 -71 0 -101 -4 -65 -8z"/>
<path d="M580 1762 c0 -24 13 -42 30 -42 17 0 30 -14 30 -30 0 -22 13 -28 45
-20 90 21 110 -21 45 -94 -32 -36 -6 -15 60 48 130 126 131 135 17 145 -43 4
-112 14 -152 21 -67 13 -75 10 -75 -28z"/>
<path d="M1253 1761 c9 -9 80 -22 157 -28 96 -8 118 -6 70 6 -112 26 -246 39
-227 22z"/>
<path d="M5240 1722 c-71 -20 -29 -35 108 -41 108 -4 115 -1 86 27 -32 33
-107 38 -194 14z"/>
<path d="M5472 1711 c5 -11 47 -22 93 -23 47 -2 165 -9 262 -17 124 -10 173
-7 164 8 -7 11 -42 22 -77 24 -61 3 -60 3 16 17 50 10 -21 15 -193 14 -184 -1
-270 -8 -265 -23z"/>
<path d="M3211 1686 c-11 -30 -16 -31 -32 -5 -16 25 -18 25 -18 -1 0 -38 22
-69 54 -75 16 -3 25 18 25 55 0 68 -10 76 -29 26z"/>
<path d="M3948 1689 c6 -18 3 -26 -8 -19 -12 8 -20 -24 -20 -79 0 -96 27 -122
47 -46 20 74 15 175 -9 175 -12 0 -17 -14 -10 -31z"/>
<path d="M2400 1663 c0 -46 17 -63 51 -50 32 12 18 59 -23 75 -18 7 -28 -2
-28 -25z"/>
<path d="M85 1644 l-85 -6 0 -110 0 -110 75 14 c100 18 114 35 20 24 -52 -5
-75 0 -75 18 0 14 14 26 30 26 17 0 30 9 30 20 0 11 13 20 29 20 16 0 36 12
45 27 9 14 33 36 53 47 50 27 2 39 -122 30z"/>
<path d="M4160 1575 c0 -100 47 -93 56 8 5 53 -2 70 -25 70 -23 0 -31 -21 -31
-78z"/>
<path d="M5825 1628 c21 -21 175 -28 175 -8 0 11 -42 20 -93 20 -52 0 -88 -5
-82 -12z"/>
<path d="M674 1459 c6 -22 28 -49 48 -60 46 -25 60 -788 15 -803 -42 -14 -40
-101 4 -147 35 -38 38 -48 14 -62 -58 -34 -62 -127 -5 -127 27 0 50 9 50 20 0
11 18 20 40 20 22 0 40 13 40 28 0 18 -14 25 -40 18 -28 -8 -40 -1 -40 23 0
18 9 28 20 21 32 -20 23 43 -10 70 -35 29 -22 105 33 183 49 70 46 100 -4 40
l-39 -47 0 181 c0 116 8 186 23 195 16 10 20 4 11 -19 -7 -18 -4 -33 7 -33 10
0 19 22 19 50 0 27 -10 48 -23 45 -12 -3 -27 8 -32 23 -7 20 0 25 22 16 26
-10 33 0 33 45 0 49 -6 56 -43 46 -30 -8 -39 -4 -29 12 8 13 27 23 43 23 44 0
35 74 -11 86 -22 6 -40 20 -40 31 0 12 14 17 30 10 61 -23 27 44 -49 98 -93
66 -100 67 -87 14z"/>
<path d="M4748 1423 c8 -13 5 -23 -7 -23 -11 0 -21 -13 -21 -29 0 -19 -12 -26
-35 -18 -27 8 -29 6 -8 -9 15 -10 46 -14 70 -8 23 6 31 15 17 19 -13 5 -18 18
-11 29 8 13 28 3 52 -26 26 -33 35 -37 27 -13 -6 19 -1 35 12 35 30 0 8 22
-27 27 -15 2 -40 12 -55 22 -19 12 -24 10 -14 -6z"/>
<path d="M0 1331 c0 -78 50 -103 131 -65 38 19 69 24 69 14 0 -11 -9 -20 -20
-20 -11 0 -20 -8 -20 -17 0 -10 21 -13 47 -8 26 4 59 -4 75 -20 48 -48 113
-54 150 -13 18 20 43 31 54 24 13 -8 14 -2 2 16 -9 15 -18 51 -18 78 l0 50
-235 3 c-233 4 -235 3 -235 -42z"/>
<path d="M646 1333 c-9 -14 -32 -32 -51 -39 -19 -7 -35 -22 -35 -34 0 -15 12
-15 39 -1 47 26 81 27 81 3 0 -16 -42 -35 -117 -53 -46 -11 -51 -29 -8 -29
113 0 131 -59 19 -62 -35 0 -53 -6 -39 -11 36 -15 31 -47 -8 -47 -28 0 -26 -9
13 -50 31 -33 52 -43 61 -28 10 16 18 16 28 -1 8 -12 2 -38 -12 -57 -24 -31
-24 -31 8 -6 20 15 41 23 47 16 20 -19 -12 -54 -49 -54 -39 0 -127 -58 -89
-59 13 -1 29 8 36 19 7 11 28 20 46 19 31 0 31 -2 -1 -21 -19 -11 -35 -31 -35
-44 0 -15 6 -17 15 -4 23 31 85 35 85 6 0 -15 -20 -36 -45 -47 -25 -11 -43
-31 -40 -45 3 -13 -6 -24 -20 -25 -44 -2 -120 -113 -85 -126 30 -12 90 35 90
70 0 36 70 110 95 102 19 -6 25 66 25 313 0 303 -12 366 -54 295z m26 -284
c-2 -16 -11 -30 -18 -30 -8 1 -29 1 -46 1 -27 0 -28 5 -8 30 32 39 78 39 72
-1z"/>
<path d="M4506 1323 c-13 -21 -26 -89 -30 -151 -6 -117 -12 -128 -52 -88 -40
40 -29 -26 16 -94 22 -33 40 -49 40 -35 0 14 14 25 30 25 21 0 30 -21 30 -69
0 -52 7 -67 29 -59 27 11 27 65 1 108 -8 12 10 11 44 -2 31 -12 99 -25 152
-29 52 -4 105 -13 115 -20 11 -7 54 -16 94 -21 143 -18 142 -65 -2 -75 -51 -3
-98 -12 -105 -19 -8 -7 6 -9 29 -5 30 6 43 -1 44 -25 0 -30 4 -29 30 5 16 21
29 33 29 26 0 -7 28 -4 62 6 55 15 61 13 53 -18 -6 -21 1 -36 16 -36 25 0 18
43 -14 85 -27 36 2 46 67 24 45 -16 53 -26 33 -39 -22 -15 -22 -22 4 -42 16
-14 29 -36 27 -50 -2 -14 -4 -33 -5 -44 -2 -10 -19 -21 -38 -26 -24 -5 -18
-10 19 -18 30 -6 50 -4 45 5 -5 8 0 21 11 28 11 7 14 23 6 36 -22 35 -25 74
-6 74 27 0 44 -75 29 -124 -13 -41 -12 -42 18 -11 37 36 44 88 13 98 -11 4
-22 33 -24 64 -5 62 -44 92 -106 81 -22 -4 -53 -1 -70 6 -16 6 -43 13 -60 14
-16 1 -28 14 -25 28 4 15 -3 21 -15 14 -11 -7 -20 -3 -20 9 0 11 -16 21 -35
21 -29 -1 -30 -4 -6 -19 17 -10 24 -25 17 -32 -21 -20 -91 10 -105 45 -10 26
-7 27 19 6 20 -17 30 -18 30 -2 0 12 -7 23 -15 24 -8 1 -35 4 -60 6 -25 3 -45
-2 -45 -11 0 -10 10 -17 21 -17 12 0 16 -9 8 -21 -9 -14 -21 -14 -39 1 -19 16
-28 15 -34 -2 -5 -15 -29 -4 -65 29 -63 59 -80 66 -65 27 15 -40 -63 -36 -85
4 -11 20 -16 73 -13 118 10 134 -12 234 -42 187z"/>
<path d="M929 877 c11 -409 9 -460 -18 -450 -17 6 -31 3 -31 -8 0 -25 74 -25
90 1 7 11 41 19 76 19 54 -2 58 -5 24 -19 -46 -20 -92 -17 560 -29 242 -5 734
-9 1094 -10 492 -2 656 -8 665 -27 8 -19 14 -18 23 1 14 30 268 35 268 5 0
-11 10 -20 21 -20 12 0 16 9 9 20 -7 11 2 20 20 20 18 0 27 -9 20 -20 -7 -11
-3 -20 9 -20 11 0 21 9 21 20 0 11 58 20 135 20 74 0 197 6 272 13 344 33 -20
46 -1349 49 -785 3 -1475 8 -1532 13 l-105 9 39 75 c21 42 34 80 29 85 -5 6
-12 151 -16 323 l-6 313 65 0 c128 0 128 1 128 -282 l0 -258 -80 -32 c-132
-53 -104 -97 35 -56 51 16 122 23 158 16 43 -8 79 -2 110 20 25 18 35 32 22
32 -14 0 -18 14 -11 33 10 25 5 29 -16 17 -20 -11 -22 -9 -8 6 11 12 59 27
106 33 103 13 170 45 153 73 -8 13 -25 10 -46 -9 -30 -26 -95 -41 -156 -35
-42 4 -46 83 -6 123 22 22 39 49 39 61 0 13 21 19 50 13 28 -5 50 0 50 12 0
12 14 2 31 -23 18 -25 40 -40 50 -33 10 6 29 -12 42 -41 l24 -51 27 63 c31 75
33 128 2 63 -12 -25 -30 -45 -40 -45 -9 0 -7 20 6 45 19 37 18 41 -4 20 -14
-14 -40 -25 -57 -25 -27 1 -27 3 -1 20 31 20 -18 31 -105 23 -19 -1 -35 6 -35
17 0 11 38 20 83 20 115 0 82 24 -42 30 l-101 6 0 -68 c0 -37 -9 -68 -20 -68
-11 0 -20 9 -20 20 0 11 -19 20 -41 20 -39 0 -41 -10 -37 -155 3 -108 -3 -154
-19 -153 -86 7 -83 -3 -83 268 l0 260 50 0 c46 0 50 -7 50 -90 0 -85 22 -115
50 -70 7 12 21 15 31 9 11 -6 19 -2 19 9 0 11 -9 25 -20 32 -11 7 -20 2 -20
-10 0 -12 -8 -17 -18 -11 -56 34 -4 81 100 91 110 10 137 41 54 61 -25 7 -68
-1 -96 -17 -48 -27 -49 -27 -10 6 39 34 39 35 -10 24 -27 -7 -81 -4 -120 5
-69 17 -69 17 30 22 l100 4 -120 16 c-66 9 -240 17 -386 17 l-266 1 11 -462z
m259 358 c-53 -91 -213 -335 -220 -335 -4 0 -8 45 -8 101 0 93 3 99 38 80 33
-18 47 -6 102 79 54 84 132 151 88 75z m13 -194 c14 21 18 15 15 -25 -3 -29
-12 -48 -22 -42 -10 6 -16 -15 -14 -47 10 -150 0 -249 -25 -234 -17 10 -16 4
2 -19 15 -18 35 -29 45 -23 21 13 3 -39 -42 -121 -27 -50 -48 -61 -117 -66
l-83 -6 0 183 0 184 105 168 105 168 6 -75 c5 -54 12 -66 25 -45z"/>
<path d="M2275 1305 c124 -3 326 -3 450 0 124 4 23 6 -225 6 -247 0 -349 -2
-225 -6z"/>
<path d="M3917 1250 c-2 -38 -4 -80 -5 -92 -1 -13 34 -25 78 -28 44 -4 68 -2
54 4 -21 8 -21 16 0 43 23 30 22 30 -9 5 -46 -36 -62 -19 -64 68 -2 93 -50 93
-54 0z"/>
<path d="M4043 1298 c15 -9 41 -13 57 -8 20 6 45 -21 75 -83 43 -87 46 -152 4
-86 -16 25 -18 24 -19 -4 0 -19 11 -39 25 -45 14 -6 4 -6 -23 0 -33 9 -43 5
-32 -12 8 -13 36 -20 63 -15 31 6 55 -2 67 -23 40 -68 20 106 -23 201 -43 94
-45 95 -132 94 -57 -2 -79 -8 -62 -19z"/>
<path d="M1960 1220 c0 -23 8 -37 19 -31 10 6 24 2 31 -9 7 -11 21 -15 31 -9
11 6 19 -2 19 -19 0 -16 -16 -39 -35 -50 -30 -18 -26 -21 25 -23 109 -3 215
-17 228 -31 6 -7 -13 -9 -43 -4 -55 11 -77 -12 -30 -31 20 -8 19 -14 -2 -29
-21 -15 -20 -21 5 -31 22 -8 32 0 32 25 0 21 18 42 40 48 49 13 51 -1 5 -52
-34 -39 -34 -39 9 -13 24 15 49 45 55 68 9 33 15 35 29 13 19 -29 277 -46 287
-19 3 8 31 9 62 3 41 -8 49 -16 30 -28 -22 -14 -21 -18 3 -18 26 -1 26 -3 1
-19 -20 -13 -35 -11 -45 5 -9 14 -16 15 -16 3 0 -12 -38 -19 -90 -17 -112 5
-117 -23 -8 -52 59 -16 88 -16 108 0 19 16 30 16 41 -2 10 -15 7 -19 -8 -10
-13 8 -23 5 -23 -7 0 -28 34 -27 51 1 10 16 20 14 33 -5 15 -21 17 -19 9 7 -6
19 -3 40 8 47 10 6 19 22 19 35 0 14 -8 12 -20 -6 -17 -27 -19 -27 -20 0 0 17
25 41 54 55 68 32 101 32 70 1 -37 -37 -29 -51 36 -60 48 -7 55 -4 37 18 -18
21 -15 24 13 13 24 -9 32 -6 23 8 -13 21 19 38 105 55 52 10 78 -37 71 -127
-4 -48 1 -61 16 -46 12 12 20 48 19 82 -1 33 8 66 20 74 15 9 16 3 6 -15 -11
-17 -2 -15 22 6 25 22 49 28 67 17 15 -10 41 -12 57 -6 17 6 42 -5 57 -26 15
-20 27 -27 27 -14 0 13 28 19 71 15 48 -4 75 3 82 21 9 22 20 23 51 7 25 -14
36 -14 28 -2 -7 12 8 11 36 -3 27 -12 44 -29 39 -38 -17 -28 6 -15 64 34 42
37 50 52 28 58 -70 23 -196 29 -286 14 -73 -11 -99 -9 -107 12 -8 20 -20 21
-50 5 -27 -15 -36 -15 -28 -1 14 23 -65 25 -98 2 -11 -8 -92 -15 -180 -15 -88
-1 -231 -3 -319 -3 -97 -1 -163 7 -172 21 -8 12 -19 14 -25 5 -20 -33 -265
-21 -258 13 6 24 2 25 -19 5 -31 -31 -105 -34 -86 -3 8 12 -12 9 -44 -7 -31
-15 -68 -26 -82 -24 -14 2 -35 5 -46 7 -13 1 -16 20 -8 47 8 25 7 39 -1 31 -9
-8 -41 4 -73 26 l-57 41 0 -43z"/>
<path d="M5835 1246 c36 -5 90 -5 120 0 30 4 1 8 -65 8 -66 0 -91 -4 -55 -8z"/>
<path d="M4915 1226 c-20 -5 -30 -17 -24 -28 6 -10 3 -18 -8 -18 -11 0 -25 11
-31 25 -6 14 -6 3 1 -25 16 -65 26 -75 45 -43 9 14 29 24 44 22 53 -7 98 1 98
18 0 10 -25 13 -55 7 -49 -9 -52 -7 -28 23 28 33 22 36 -42 19z"/>
<path d="M3048 1203 c-10 -7 -21 -26 -24 -41 -5 -25 -1 -25 29 0 22 18 29 19
20 3 -9 -14 -10 -25 -3 -25 14 0 77 59 66 62 -48 11 -74 11 -88 1z"/>
<path d="M5 1132 c-6 -11 3 -13 20 -7 19 8 37 0 44 -19 9 -23 2 -28 -29 -20
-31 8 -40 1 -40 -34 0 -39 9 -44 65 -38 55 6 60 3 32 -17 -32 -23 -32 -27 0
-51 42 -33 -28 -13 -77 22 -17 12 -13 1 8 -23 34 -40 34 -45 5 -45 -25 0 -33
-19 -33 -82 l0 -83 185 195 c102 108 187 201 190 208 8 20 -358 14 -370 -6z"/>
<path d="M485 1006 c-14 -5 -25 -22 -25 -38 0 -32 -61 -38 -96 -8 -13 11 -19
14 -14 7 5 -7 -1 -26 -13 -41 -18 -21 -15 -24 13 -13 25 9 32 6 22 -10 -8 -12
-27 -23 -43 -23 -16 0 -29 -8 -29 -18 0 -26 57 -43 71 -21 15 26 49 24 49 -2
0 -12 -10 -15 -23 -7 -14 8 -18 5 -10 -8 24 -38 93 -21 72 19 -14 26 -5 45 40
83 59 50 49 102 -14 80z"/>
<path d="M2425 955 c-34 -42 -1 -101 40 -71 28 22 29 31 7 61 -21 28 -31 30
-47 10z"/>
<path d="M4340 899 c0 -60 52 -208 115 -329 17 -33 24 -54 15 -46 -21 20 -130
-60 -130 -95 0 -16 9 -29 20 -29 11 0 20 -9 20 -20 0 -11 -13 -20 -30 -20 -17
0 -30 -18 -30 -41 0 -24 -9 -36 -21 -28 -12 7 -17 26 -11 42 7 16 3 24 -8 17
-11 -7 -20 -44 -20 -83 0 -60 -5 -69 -35 -56 -86 38 -458 13 -486 -33 -16 -24
-18 -23 -19 3 0 34 -315 49 -684 31 -40 -2 -68 4 -62 14 7 11 -56 13 -156 4
-179 -15 -197 -16 -394 -12 -79 1 -122 10 -114 22 7 11 3 20 -9 20 -11 0 -21
-9 -21 -21 0 -12 -68 -19 -180 -17 -99 1 -180 9 -180 16 0 7 -38 10 -85 7
-230 -18 -363 -14 -387 10 -36 36 -51 32 -101 -30 -36 -45 -49 -50 -71 -29
-21 22 -19 24 14 13 32 -10 34 -9 10 9 -46 33 -64 26 -50 -18 14 -44 -36 -58
-62 -17 -9 14 -5 18 9 9 27 -17 30 6 5 45 -14 22 -26 22 -74 -3 -125 -63 -143
-62 -152 14 -5 45 0 65 13 56 43 -27 114 -25 156 5 44 31 44 31 -16 34 -32 1
-88 5 -124 8 l-65 6 0 -99 c0 -89 -38 -146 -42 -63 -1 19 -9 8 -19 -24 -23
-78 -15 -83 96 -54 156 39 202 44 215 23 7 -11 22 -15 32 -9 11 7 71 13 134
13 63 1 126 11 141 23 20 16 31 13 44 -10 12 -21 36 -28 68 -22 28 5 47 16 42
24 -5 8 3 14 19 14 16 0 24 -7 18 -16 -6 -10 1 -18 16 -19 14 0 42 -4 61 -8
19 -3 35 -1 35 7 0 7 32 15 70 17 50 3 67 -3 57 -20 -8 -13 1 -11 21 5 22 17
40 21 49 9 17 -26 183 -25 183 2 0 11 9 7 20 -10 13 -20 19 -22 20 -5 0 14 18
25 40 25 22 0 40 -13 40 -29 0 -32 111 -23 149 12 30 27 136 21 119 -6 -10
-16 -5 -18 14 -5 15 10 65 18 111 19 l83 1 -30 -51 c-20 -33 -21 -40 -3 -19
46 54 105 77 143 55 19 -11 50 -15 69 -9 19 6 71 2 115 -8 66 -15 84 -13 105
14 14 19 25 24 25 13 0 -12 22 -17 50 -12 28 5 50 1 50 -10 0 -11 22 -15 50
-10 27 5 44 18 37 29 -6 11 10 6 38 -12 40 -27 53 -28 71 -7 27 33 444 47 444
16 0 -12 18 -21 40 -21 22 0 40 7 40 16 0 39 218 23 230 -17 15 -47 44 -49
128 -7 35 18 82 27 103 22 22 -6 39 -2 39 8 0 11 43 15 95 10 58 -5 93 -17 90
-32 -4 -13 3 -18 14 -11 10 7 14 25 9 40 -7 16 7 33 32 41 43 14 42 15 -10 42
-63 32 -150 37 -150 8 0 -11 -13 -20 -30 -20 -16 0 -30 -9 -30 -20 0 -30 -125
-15 -160 19 -26 25 -31 23 -36 -14 -14 -91 -64 -96 -64 -6 0 54 8 79 21 70 12
-7 27 6 33 29 6 23 22 42 36 42 14 0 36 13 50 30 35 42 60 37 60 -10 0 -22 -9
-40 -21 -40 -14 0 -14 -12 0 -38 19 -35 25 -36 129 -5 60 18 106 37 102 43 -4
6 15 21 42 33 26 13 43 16 38 7 -6 -10 8 -23 31 -30 23 -8 37 -19 31 -24 -23
-24 30 -83 68 -76 22 4 40 -1 40 -11 0 -11 10 -19 21 -19 12 0 16 9 9 20 -7
11 -2 20 10 20 40 0 87 61 65 83 -14 14 -25 14 -34 -1 -7 -12 -22 -22 -33 -22
-11 0 -14 11 -6 23 10 16 4 20 -17 12 -19 -7 -36 0 -43 18 -7 16 -19 25 -27
20 -18 -11 -52 27 -62 68 -3 16 -19 43 -35 61 -15 17 -28 45 -28 62 0 17 -13
42 -28 54 -16 13 -26 46 -23 73 3 27 -2 49 -12 49 -9 0 -17 -11 -17 -25 -1
-17 -7 -15 -19 4 -13 20 -11 35 5 45 13 9 15 16 4 16 -11 0 -6 9 10 20 26 17
25 19 -3 20 -19 0 -37 10 -41 22 -4 13 -26 7 -54 -16 -36 -30 -44 -49 -32 -85
11 -36 18 -40 32 -19 13 21 17 17 18 -16 0 -24 9 -49 20 -56 12 -7 16 -21 10
-30 -6 -9 -1 -23 10 -30 69 -42 114 -201 65 -226 -94 -48 -165 -45 -165 7 0
27 -10 49 -23 49 -13 0 -9 16 12 39 44 48 34 105 -24 131 -33 14 -45 36 -45
82 0 59 -87 288 -110 288 -5 0 -10 -28 -10 -61z"/>
<path d="M2874 911 c-35 -26 14 -91 69 -91 61 0 120 -43 97 -70 -14 -17 -16
-30 -6 -30 11 0 30 23 42 50 16 35 39 50 75 50 30 0 46 9 39 20 -7 12 -21 15
-31 9 -11 -6 -19 -4 -19 5 0 9 -19 28 -42 43 -23 14 -36 16 -29 4 8 -12 -3
-21 -26 -21 -22 0 -44 -16 -49 -35 -9 -33 -9 -33 -12 0 -1 22 -18 35 -44 35
-29 0 -39 9 -31 30 14 36 13 36 -33 1z"/>
<path d="M4113 908 c9 -21 0 -44 -25 -62 -40 -29 -4 -78 39 -52 11 7 15 -6 8
-31 -9 -33 -2 -43 27 -43 21 0 38 10 38 21 0 12 -8 17 -17 11 -10 -6 -13 12
-8 39 8 40 3 47 -24 37 -27 -11 -31 -4 -20 37 7 28 3 56 -9 64 -14 8 -17 1 -9
-21z"/>
<path d="M3960 898 c0 -10 7 -18 16 -18 8 0 15 -19 15 -41 0 -31 -9 -39 -39
-31 -22 6 -52 1 -66 -11 -20 -17 -26 -9 -27 36 -1 54 -3 55 -20 12 -10 -25
-27 -45 -38 -45 -42 0 -18 -31 48 -64 l68 -34 -9 49 c-5 27 -5 49 0 49 27 0
72 -27 72 -43 0 -11 -10 -13 -23 -5 -16 10 -20 1 -12 -27 9 -35 3 -40 -37 -33
-63 12 -61 -19 3 -49 41 -18 52 -17 62 7 8 22 20 24 48 10 58 -31 60 -24 17
48 -28 49 -33 73 -17 83 17 10 16 18 -3 30 -20 13 -20 22 -1 45 19 24 16 31
-17 40 -22 5 -40 2 -40 -8z"/>
<path d="M220 840 c-25 -21 -53 -34 -63 -28 -9 6 -17 1 -17 -11 0 -31 51 -25
80 9 20 24 32 25 53 7 38 -31 49 -15 18 28 -24 33 -28 33 -71 -5z"/>
<path d="M2160 851 c0 -35 31 -42 51 -10 23 37 91 -42 77 -88 -13 -39 -11 -39
21 -7 36 37 52 43 49 19 -6 -38 3 -90 14 -79 32 32 -13 150 -53 139 -28 -7
-39 -1 -35 17 4 18 -16 30 -59 34 -48 5 -65 -2 -65 -25z"/>
<path d="M3213 819 c-18 -22 -23 -43 -12 -49 10 -7 19 -3 19 8 0 11 14 16 30
9 20 -7 30 1 30 26 0 22 7 28 15 16 8 -12 31 -28 51 -35 20 -8 31 -23 23 -35
-7 -12 -26 -17 -42 -11 -17 7 -24 3 -16 -9 7 -11 30 -15 51 -8 21 6 38 3 38
-7 0 -28 187 -18 206 11 9 14 31 25 50 25 29 -1 30 -3 4 -20 -16 -11 -21 -20
-9 -20 12 0 33 11 48 25 22 20 24 20 11 -3 -10 -18 -7 -24 10 -19 15 5 29 24
31 43 3 19 -2 30 -11 24 -10 -6 -23 -1 -30 10 -7 11 -23 15 -35 7 -42 -26
-264 -18 -325 12 -85 41 -101 41 -137 0z"/>
<path d="M2412 796 c-32 -154 -31 -156 40 -156 54 0 65 6 56 35 -11 33 -10 33
18 0 33 -41 57 -44 88 -13 17 17 13 34 -15 64 -21 23 -45 35 -52 28 -8 -8 -3
-14 10 -14 13 0 23 -9 23 -20 0 -11 -13 -20 -30 -20 -17 0 -30 18 -30 40 0 22
-8 40 -18 40 -10 0 -14 -18 -8 -40 9 -33 3 -38 -27 -28 -27 9 -30 7 -10 -8 19
-13 21 -23 5 -33 -28 -17 -51 39 -29 73 23 38 26 74 6 87 -10 6 -22 -10 -27
-35z"/>
<path d="M2680 820 c-27 -9 -41 -17 -30 -18 11 -2 7 -11 -10 -21 -24 -16 -25
-24 -4 -45 20 -20 28 -16 38 22 12 45 14 46 39 11 25 -34 27 -33 27 17 0 30
-2 53 -5 52 -3 -1 -27 -9 -55 -18z"/>
<path d="M330 700 c-7 -12 -21 -15 -31 -9 -11 6 -19 -3 -19 -21 0 -18 -10 -26
-21 -19 -12 7 -39 -3 -60 -22 -43 -39 -51 -69 -18 -69 12 0 16 8 10 18 -6 9 3
29 19 42 50 42 35 -13 -20 -72 -60 -65 -64 -95 -10 -78 41 13 49 -3 28 -58 -9
-23 -39 -32 -106 -32 -80 0 -93 -6 -93 -40 0 -22 7 -40 15 -40 9 0 16 10 16
22 0 17 8 17 28 0 21 -18 35 -16 58 7 17 17 39 31 48 32 61 2 91 58 58 108
-18 28 -24 51 -12 51 11 0 21 16 22 35 1 21 5 25 11 10 6 -14 19 -25 30 -25
11 0 14 9 7 20 -7 11 5 20 26 20 60 0 91 49 65 99 -25 46 -33 50 -51 21z"/>
<path d="M2069 679 c-21 -23 -29 -40 -18 -38 10 2 24 2 29 0 47 -18 83 -11
114 24 35 40 35 41 -9 30 -25 -6 -45 -3 -45 7 0 31 -32 20 -71 -23z"/>
<path d="M3195 697 c25 -13 45 -31 45 -40 0 -28 120 -20 121 8 1 14 10 7 20
-15 18 -38 18 -38 14 -1 -7 51 -114 83 -116 34 -2 -28 -4 -28 -15 -3 -8 17
-36 32 -64 35 l-50 5 45 -23z"/>
<path d="M2653 670 c-9 -22 2 -30 38 -30 33 0 49 11 49 35 -1 30 -3 31 -20 5
-13 -20 -19 -22 -20 -5 0 35 -33 31 -47 -5z"/>
<path d="M2900 675 c0 -10 -8 -13 -17 -7 -9 6 -7 -21 5 -59 13 -42 32 -66 47
-60 14 5 25 0 25 -12 0 -31 57 19 82 71 20 42 20 42 -13 2 -32 -38 -32 -37
-19 27 14 66 13 66 -24 30 -21 -20 -31 -40 -22 -44 9 -3 16 -20 16 -38 0 -27
-6 -26 -40 5 -22 20 -40 44 -40 53 0 9 18 17 40 17 22 0 40 7 40 16 0 8 -18
15 -40 15 -22 0 -40 -7 -40 -16z"/>
<path d="M3588 652 c-49 -54 -22 -106 57 -109 43 -1 72 5 66 15 -6 10 -28 14
-49 8 -21 -5 -44 1 -52 14 -19 31 1 48 34 28 43 -27 73 -26 84 4 10 25 -11 37
-53 30 -8 -1 -15 6 -15 15 0 24 -48 20 -72 -5z"/>
<path d="M1750 644 c-5 -5 0 -26 11 -45 19 -36 99 -47 99 -14 0 10 8 12 18 6
10 -6 14 5 9 25 -9 34 -110 54 -137 28z"/>
<path d="M4256 648 c-18 -36 -15 -128 5 -128 12 0 15 10 8 22 -8 12 -3 29 11
38 17 11 19 26 5 50 -11 19 -24 27 -29 18z"/>
<path d="M5042 621 c-21 -12 -21 -18 -2 -24 14 -5 25 -33 25 -62 0 -35 8 -49
23 -41 14 9 14 4 -2 -16 -29 -36 -6 -85 24 -51 24 26 26 63 6 83 -7 8 -8 28
-1 45 8 23 4 27 -15 15 -19 -12 -23 -8 -14 16 15 39 -8 58 -44 35z"/>
<path d="M2173 587 c-21 -22 -15 -87 8 -87 12 0 16 9 9 20 -7 11 9 18 39 16
28 -3 51 -10 51 -16 0 -21 98 -20 110 1 7 11 6 18 -4 16 -39 -9 -205 29 -195
45 13 21 2 24 -18 5z"/>
<path d="M4935 586 c-24 -6 -35 -28 -34 -72 1 -62 2 -63 21 -15 11 27 29 61
41 75 12 14 19 25 14 24 -4 -2 -23 -7 -42 -12z"/>
<path d="M5468 585 c-26 -18 -29 -85 -3 -85 10 0 31 14 48 30 27 27 26 30 -3
30 -18 0 -27 9 -20 20 15 24 8 25 -22 5z"/>
<path d="M0 550 c0 -38 20 -38 93 0 l57 30 -75 0 c-53 0 -75 -9 -75 -30z"/>
<path d="M1591 562 c-16 -26 30 -53 46 -27 7 10 30 17 50 14 20 -3 31 0 24 7
-22 21 -107 26 -120 6z"/>
<path d="M470 460 c-7 -12 -23 -15 -34 -7 -13 8 -16 4 -8 -10 9 -14 1 -23 -18
-23 -18 0 -27 9 -20 20 17 28 -17 25 -46 -4 -52 -52 -15 -90 50 -50 13 8 28 6
35 -4 16 -26 74 -7 141 46 48 38 51 45 18 46 -46 1 -92 -32 -77 -56 6 -10 -3
-12 -20 -5 -25 9 -27 18 -9 39 13 16 18 28 12 28 -7 0 -17 -9 -24 -20z"/>
<path d="M5328 428 c7 -17 12 -43 12 -56 0 -19 45 -24 175 -21 226 6 219 4
174 37 -26 19 -43 22 -52 8 -7 -12 -23 -15 -36 -7 -17 11 -17 21 0 43 17 20
18 28 1 28 -20 0 -30 -27 -24 -65 1 -8 -7 -15 -18 -15 -11 0 -20 10 -20 21 0
12 -8 16 -19 10 -10 -6 -24 -2 -31 9 -7 11 -21 15 -32 9 -10 -6 -13 -21 -6
-32 7 -12 -7 -18 -35 -14 -30 5 -46 19 -44 42 1 19 -11 35 -27 35 -19 0 -26
-11 -18 -32z"/>
<path d="M5210 388 c-33 -17 -85 -27 -116 -23 -38 6 -49 2 -35 -12 12 -12 53
-19 93 -16 54 3 67 -2 56 -21 -10 -17 -4 -16 20 3 34 28 34 30 -1 44 -32 12
-32 14 -3 16 18 0 39 10 46 21 16 26 11 25 -60 -12z"/>
<path d="M286 253 c-7 -11 -2 -13 11 -5 13 8 23 5 23 -6 0 -11 18 -16 40 -12
21 4 44 -1 51 -11 6 -11 1 -19 -11 -19 -12 0 -17 -9 -10 -20 7 -11 30 -3 55
20 23 22 36 46 28 54 -22 22 -174 21 -187 -1z"/>
<path d="M5701 280 c-15 -34 -15 -82 1 -91 10 -7 14 -20 7 -30 -6 -10 3 -13
20 -7 17 7 31 2 31 -11 0 -13 9 -18 21 -10 11 7 18 27 15 46 -3 18 2 44 10 57
8 13 4 30 -9 38 -14 8 -18 6 -10 -8 8 -12 -2 -31 -22 -42 -19 -12 -24 -21 -10
-21 14 -1 25 -10 25 -20 0 -43 -58 6 -66 56 -4 29 -10 49 -13 43z"/>
<path d="M5057 215 c-13 -26 -27 -35 -32 -21 -5 17 -26 13 -70 -14 -34 -21
-68 -35 -74 -30 -7 4 -14 -12 -16 -36 -2 -30 2 -35 13 -17 9 15 40 28 69 30
29 2 53 10 53 19 0 9 26 12 59 7 39 -6 62 0 69 20 7 16 3 24 -8 17 -18 -11
-29 15 -22 55 4 30 -17 14 -41 -30z"/>
<path d="M5641 250 c9 -47 -2 -91 -21 -80 -11 7 -20 3 -20 -8 0 -11 -13 -16
-30 -9 -16 6 -30 24 -30 39 0 15 -15 28 -32 28 -25 0 -28 -6 -11 -27 13 -15
17 -33 9 -40 -12 -13 65 -22 104 -13 11 3 29 5 41 6 23 1 24 86 1 109 -9 8
-14 6 -11 -5z"/>
<path d="M5240 216 c0 -9 17 -16 38 -16 20 0 49 -15 65 -33 24 -30 22 -32 -23
-22 -27 6 -68 4 -90 -5 -29 -13 -14 -18 57 -19 85 -1 95 3 83 34 -8 19 -15 45
-16 56 -1 25 -114 30 -114 5z"/>
<path d="M140 158 c-38 -8 -75 -11 -83 -6 -8 5 -20 0 -26 -10 -19 -31 28 -48
60 -21 16 13 46 19 67 14 21 -6 49 -3 62 5 40 24 -5 35 -80 18z"/>
</g>
</svg>
